<svg width="792" height="799" viewBox="0 0 792 799" fill="none" xmlns="http://www.w3.org/2000/svg">
<mask id="mask0_188_3144" style="mask-type:luminance" maskUnits="userSpaceOnUse" x="247" y="557" width="280" height="821">
<path d="M526.535 557.104C508.143 621.579 494.812 687.389 486.663 753.936C477.471 828.332 472.925 903.229 473.051 978.19C472.603 1050.29 476.863 1122.33 485.806 1193.88C493.587 1256.24 506.693 1317.83 524.981 1377.96C428.732 1344.43 358.081 1295.26 313.029 1230.46C269.013 1166.61 247.112 1093.13 247.327 1010C247.327 924.559 270.067 842.577 315.548 764.059C361.743 685.219 432.072 616.234 526.535 557.104Z" fill="white"/>
</mask>
<g mask="url(#mask0_188_3144)">
<path d="M526.535 557.104C508.143 621.579 494.812 687.389 486.663 753.936C477.471 828.332 472.925 903.229 473.051 978.19C472.603 1050.29 476.863 1122.33 485.806 1193.88C493.587 1256.24 506.693 1317.83 524.981 1377.96C428.732 1344.43 358.081 1295.26 313.029 1230.46C269.013 1166.61 247.112 1093.13 247.327 1010C247.327 924.559 270.067 842.577 315.548 764.059C361.743 685.219 432.072 616.234 526.535 557.104Z" stroke="url(#paint0_linear_188_3144)" stroke-width="0.7" stroke-miterlimit="10"/>
</g>
<mask id="mask1_188_3144" style="mask-type:luminance" maskUnits="userSpaceOnUse" x="2" y="424" width="281" height="822">
<path d="M282.211 424.276C263.845 488.757 250.514 554.565 242.339 621.108C233.172 695.525 228.626 770.437 228.727 845.416C228.297 917.495 232.575 989.525 241.536 1061.05C249.259 1123.42 262.366 1185.01 280.71 1245.13C184.247 1211.6 113.596 1162.44 68.7588 1097.63C24.7072 1033.82 2.77069 960.319 2.94932 877.123C2.94932 791.713 25.6718 709.731 71.1168 631.177C117.419 552.48 187.784 483.513 282.211 424.276Z" fill="white"/>
</mask>
<g mask="url(#mask1_188_3144)">
<path d="M282.211 424.276C263.845 488.757 250.514 554.565 242.339 621.108C233.172 695.525 228.626 770.437 228.727 845.416C228.297 917.495 232.575 989.525 241.536 1061.05C249.259 1123.42 262.366 1185.01 280.71 1245.13C184.247 1211.6 113.596 1162.44 68.7588 1097.63C24.7072 1033.82 2.77069 960.319 2.94932 877.123C2.94932 791.713 25.6718 709.731 71.1168 631.177C117.419 552.48 187.784 483.513 282.211 424.276Z" stroke="url(#paint1_linear_188_3144)" stroke-width="0.7" stroke-miterlimit="10"/>
</g>
<mask id="mask2_188_3144" style="mask-type:luminance" maskUnits="userSpaceOnUse" x="228" y="410" width="195" height="928">
<path d="M282.21 424.276C299.627 400.924 362.329 408.208 422.297 441.04C398.675 519.323 381.135 599.311 369.831 680.291C361.194 753.804 356.703 827.744 356.38 901.761C356.384 972.897 360.607 1043.97 369.027 1114.61C379.828 1190.3 397.094 1264.93 420.635 1337.68C360.667 1305.07 298.02 1263.61 280.71 1245.13C262.366 1185.01 249.259 1123.42 241.535 1061.05C232.575 989.525 228.296 917.495 228.727 845.416C228.626 770.437 233.172 695.525 242.339 621.108C250.514 554.565 263.844 488.757 282.21 424.276Z" fill="white"/>
</mask>
<g mask="url(#mask2_188_3144)">
<path d="M282.21 424.276C299.627 400.924 362.329 408.208 422.297 441.04C398.675 519.323 381.135 599.311 369.831 680.291C309.863 647.674 252.789 621.376 242.339 621.108C250.514 554.565 263.844 488.757 282.21 424.276Z" stroke="url(#paint2_linear_188_3144)" stroke-width="0.7" stroke-miterlimit="10"/>
<path d="M312.918 410.993C291.86 482.433 276.414 555.406 266.723 629.249" stroke="url(#paint3_linear_188_3144)" stroke-width="0.7" stroke-miterlimit="10"/>
<path d="M363.186 416.992C340.249 493.384 323.282 571.441 312.436 650.459" stroke="url(#paint4_linear_188_3144)" stroke-width="0.7" stroke-miterlimit="10"/>
<path d="M266.026 486.834C278.513 480.835 337.249 502.42 397.217 535.038" stroke="url(#paint5_linear_188_3144)" stroke-width="0.7" stroke-miterlimit="10"/>
<path d="M252.682 552.444C263.4 552.444 320.849 579.224 380.817 611.681" stroke="url(#paint6_linear_188_3144)" stroke-width="0.7" stroke-miterlimit="10"/>
<path d="M242.338 621.108C253.056 621.108 309.863 647.888 369.831 680.291C361.194 753.804 356.703 827.744 356.38 901.761C296.411 869.143 239.284 843.97 228.726 845.416C228.625 770.437 233.171 695.525 242.338 621.108Z" stroke="url(#paint7_linear_188_3144)" stroke-width="0.7" stroke-miterlimit="10"/>
<path d="M266.723 629.249C257.792 703.202 253.282 777.621 253.218 852.111" stroke="url(#paint8_linear_188_3144)" stroke-width="0.7" stroke-miterlimit="10"/>
<path d="M312.436 650.459C303.744 724.092 299.253 798.16 298.984 872.303" stroke="url(#paint9_linear_188_3144)" stroke-width="0.7" stroke-miterlimit="10"/>
<path d="M234.89 692.824C245.608 692.449 302.682 718.586 362.65 751.204" stroke="url(#paint10_linear_188_3144)" stroke-width="0.7" stroke-miterlimit="10"/>
<path d="M230.335 767.594C241.053 766.79 298.395 792.606 358.363 825.224" stroke="url(#paint11_linear_188_3144)" stroke-width="0.7" stroke-miterlimit="10"/>
<path d="M282.21 424.276C299.627 400.924 362.329 408.208 422.297 441.04C398.675 519.323 381.135 599.311 369.831 680.291C361.194 753.804 356.703 827.744 356.38 901.761C356.384 972.897 360.607 1043.97 369.027 1114.61C379.828 1190.3 397.094 1264.93 420.635 1337.68C360.667 1305.07 298.02 1263.61 280.71 1245.13C262.366 1185.01 249.259 1123.42 241.535 1061.05C232.575 989.525 228.296 917.495 228.727 845.416C228.626 770.437 233.172 695.525 242.339 621.108C250.514 554.565 263.844 488.757 282.21 424.276Z" stroke="url(#paint12_linear_188_3144)" stroke-width="0.7" stroke-miterlimit="10"/>
</g>
<mask id="mask3_188_3144" style="mask-type:luminance" maskUnits="userSpaceOnUse" x="1" y="410" width="422" height="874">
<path d="M70.4757 1106.41C54.0202 1083.34 40.2817 1058.45 29.5324 1032.23C24.1733 1018.25 24.1733 1018.25 21.333 1010.17C18.0639 1000.42 15.9739 992.973 14.5805 987.563C10.4411 972.047 7.27316 956.287 5.09496 940.377C2.9116 924.001 1.65914 907.513 1.3436 890.995C1.3436 888.21 0.754105 862.983 2.68337 839.524C3.99703 822.541 6.2513 805.644 9.43581 788.91C12.6093 772.142 16.7245 755.566 21.7617 739.26C26.8901 722.701 32.8643 706.416 39.661 690.468C49.4681 667.544 59.1145 649.816 63.1874 642.264C79.0512 613.669 97.6444 586.674 118.707 561.657C141.22 534.734 166.057 509.84 192.931 487.262C198.29 482.817 205.524 476.55 218.011 467.07C227.014 460.107 227.014 460.107 244.807 447.146C258.794 437.077 274.281 427.222 289.287 417.688C313.135 402.906 368.708 412.011 422.085 441.04C280.659 526.736 212.331 598.238 163.724 680.827C111.901 767.058 90.5723 843.97 92.448 938.824C90.1971 1032.02 110.776 1101.06 161.58 1170.68C191.698 1213.96 230.391 1250.76 291.431 1283.96C253.917 1263.29 234.303 1251.02 214.581 1238.28C199.04 1228.21 175.406 1211.5 157.775 1197.57C140.425 1183.9 124.008 1169.08 108.632 1153.22C94.7135 1138.64 81.9558 1122.98 70.4757 1106.41Z" fill="white"/>
</mask>
<g mask="url(#mask3_188_3144)">
<path d="M2.95142 877.123C-7.76673 878.569 32.4799 906.206 92.448 938.824C90.5724 844.077 111.901 767.058 163.938 680.827C103.97 648.263 62.4372 626.036 71.1189 631.177C25.8525 709.731 3.13006 791.713 2.95142 877.123Z" stroke="url(#paint13_linear_188_3144)" stroke-width="0.7" stroke-miterlimit="10"/>
<path d="M8.14979 886.817C7.23875 796.677 29.5861 717.194 77.8178 634.766" stroke="url(#paint14_linear_188_3144)" stroke-width="0.7" stroke-miterlimit="10"/>
<path d="M40.2505 908.67C38.6427 815.155 60.1862 737.279 111.312 652.333" stroke="url(#paint15_linear_188_3144)" stroke-width="0.7" stroke-miterlimit="10"/>
<path d="M10.6143 792.874C-0.74694 791.267 38.6423 816.387 98.5568 849.004" stroke="url(#paint16_linear_188_3144)" stroke-width="0.7" stroke-miterlimit="10"/>
<path d="M33.3374 710.874C22.2977 708.142 61.9013 732.298 121.869 764.969" stroke="url(#paint17_linear_188_3144)" stroke-width="0.7" stroke-miterlimit="10"/>
<path d="M71.1179 631.177C62.4362 625.821 103.969 648.263 163.937 680.827C212.544 598.238 280.872 527.004 422.298 441.04C362.33 408.422 299.629 400.924 282.212 424.276C187.785 483.477 117.42 552.444 71.1179 631.177Z" stroke="url(#paint18_linear_188_3144)" stroke-width="0.7" stroke-miterlimit="10"/>
<path d="M77.9785 634.498C125.46 553.837 194.806 483.727 312.921 410.993" stroke="url(#paint19_linear_188_3144)" stroke-width="0.7" stroke-miterlimit="10"/>
<path d="M111.312 652.333C159.543 570.28 228.193 499.313 363.188 416.992" stroke="url(#paint20_linear_188_3144)" stroke-width="0.7" stroke-miterlimit="10"/>
<path d="M125.406 555.712C118.279 548.16 161.151 568.459 221.119 601.077" stroke="url(#paint21_linear_188_3144)" stroke-width="0.7" stroke-miterlimit="10"/>
<path d="M195.824 486.727C195.181 474.194 243.305 490.476 303.005 523.04" stroke="url(#paint22_linear_188_3144)" stroke-width="0.7" stroke-miterlimit="10"/>
<path d="M70.4757 1106.41C54.0202 1083.34 40.2817 1058.45 29.5324 1032.23C24.1733 1018.25 24.1733 1018.25 21.333 1010.17C18.0639 1000.42 15.9739 992.973 14.5805 987.563C10.4411 972.047 7.27316 956.287 5.09496 940.377C2.9116 924.001 1.65914 907.513 1.3436 890.995C1.3436 888.21 0.754105 862.983 2.68337 839.524C3.99703 822.541 6.2513 805.644 9.43581 788.91C12.6093 772.142 16.7245 755.566 21.7617 739.261C26.8901 722.701 32.8643 706.416 39.661 690.468C49.4681 667.544 59.1145 649.816 63.1874 642.264C79.0512 613.669 97.6444 586.675 118.707 561.657C141.22 534.734 166.057 509.84 192.931 487.262C198.29 482.817 205.524 476.55 218.011 467.07C227.014 460.107 227.014 460.108 244.807 447.146C258.794 437.077 274.281 427.222 289.287 417.688C313.135 402.906 368.708 412.011 422.085 441.04C280.659 526.736 212.331 598.238 163.724 680.827C111.901 767.058 90.5723 843.97 92.4479 938.824C90.1971 1032.02 110.776 1101.06 161.58 1170.68C191.698 1213.96 230.391 1250.76 291.431 1283.96C253.917 1263.29 234.303 1251.02 214.581 1238.28C199.04 1228.21 175.406 1211.5 157.775 1197.57C140.425 1183.9 124.008 1169.08 108.632 1153.22C94.7135 1138.64 81.9558 1122.98 70.4757 1106.41Z" stroke="url(#paint23_linear_188_3144)" stroke-width="0.7" stroke-miterlimit="10"/>
</g>
<mask id="mask4_188_3144" style="mask-type:luminance" maskUnits="userSpaceOnUse" x="1" y="417" width="420" height="921">
<path d="M291.377 1283.75C259.705 1266.29 246.361 1258.41 216.725 1239.51C200.058 1228.8 177.175 1212.73 163.563 1202.02C153.863 1194.41 149.04 1190.55 137.518 1180.59C131.462 1175.24 123.638 1168.22 118.011 1162.6C110.883 1155.42 104.72 1149.26 99.6289 1143.48C97.1102 1140.53 93.6268 1136.73 91.1616 1133.73C86.5528 1127.84 80.0147 1120.07 75.8346 1113.91C70.0468 1105.77 63.4016 1096.56 56.7027 1085.58C48.1282 1071.49 43.8409 1063.03 39.2857 1053.98C36.7669 1049 31.1935 1036.52 29.5858 1032.55C23.8516 1017.93 23.1013 1016 17.8494 999.346C12.0909 980.155 7.82667 960.547 5.09478 940.698C2.40484 920.1 1.1157 899.342 1.23625 878.569C1.21276 857.079 2.59118 835.609 5.36274 814.298C8.18916 793.215 12.4506 772.35 18.1173 751.847C22.5654 736.636 24.6018 729.727 30.0145 714.998C35.4272 700.269 39.6608 690.682 45.0199 678.577C54.5001 657.978 65.2385 637.98 77.1744 618.698C89.6957 598.756 103.573 579.698 118.707 561.657C134.594 542.754 151.652 524.866 169.779 508.097C181.408 497.117 193.627 487.048 205.471 477.3C211.955 471.944 226.157 461.232 231.462 457.215C235.482 454.216 257.079 438.148 289.715 417.849C286.9 419.577 284.429 421.811 282.427 424.437C188 483.638 117.635 552.605 71.333 631.338C25.9237 709.785 3.12979 791.713 2.95115 877.123C2.95115 960.319 24.8877 1033.82 68.7607 1097.63C113.777 1162.44 184.427 1211.6 280.712 1245.13C298.022 1263.61 360.67 1305.06 420.638 1337.68C376.03 1323.59 332.771 1305.54 291.377 1283.75Z" fill="white"/>
</mask>
<g mask="url(#mask4_188_3144)">
<path d="M2.95142 877.123C-7.76673 878.569 32.4799 906.206 92.448 938.824C90.5724 844.077 111.901 767.058 163.938 680.827C103.97 648.263 62.4372 626.035 71.1189 631.177C25.8525 709.731 3.13006 791.713 2.95142 877.123Z" stroke="url(#paint24_linear_188_3144)" stroke-width="0.7" stroke-miterlimit="10"/>
<path d="M8.14979 886.817C7.23875 796.677 29.5861 717.194 77.8178 634.766" stroke="url(#paint25_linear_188_3144)" stroke-width="0.7" stroke-miterlimit="10"/>
<path d="M40.2505 908.67C38.6427 815.155 60.1862 737.279 111.312 652.333" stroke="url(#paint26_linear_188_3144)" stroke-width="0.7" stroke-miterlimit="10"/>
<path d="M10.6143 792.874C-0.74694 791.267 38.6423 816.386 98.5568 849.004" stroke="url(#paint27_linear_188_3144)" stroke-width="0.7" stroke-miterlimit="10"/>
<path d="M33.3374 710.874C22.2977 708.142 61.9013 732.298 121.869 764.969" stroke="url(#paint28_linear_188_3144)" stroke-width="0.7" stroke-miterlimit="10"/>
<path d="M71.1179 631.177C62.4362 625.821 103.969 648.263 163.937 680.827C212.544 598.238 280.872 527.004 422.298 441.04C362.33 408.422 299.629 400.924 282.212 424.276C187.785 483.477 117.42 552.444 71.1179 631.177Z" stroke="url(#paint29_linear_188_3144)" stroke-width="0.7" stroke-miterlimit="10"/>
<path d="M77.9785 634.498C125.46 553.837 194.806 483.727 312.921 410.993" stroke="url(#paint30_linear_188_3144)" stroke-width="0.7" stroke-miterlimit="10"/>
<path d="M111.312 652.333C159.543 570.28 228.193 499.313 363.188 416.992" stroke="url(#paint31_linear_188_3144)" stroke-width="0.7" stroke-miterlimit="10"/>
<path d="M125.406 555.712C118.279 548.16 161.151 568.459 221.119 601.077" stroke="url(#paint32_linear_188_3144)" stroke-width="0.7" stroke-miterlimit="10"/>
<path d="M195.824 486.727C195.181 474.194 243.305 490.476 303.005 523.04" stroke="url(#paint33_linear_188_3144)" stroke-width="0.7" stroke-miterlimit="10"/>
<path d="M291.377 1283.75C259.705 1266.29 246.361 1258.41 216.725 1239.51C200.058 1228.8 177.175 1212.73 163.563 1202.02C153.863 1194.41 149.04 1190.55 137.518 1180.59C131.462 1175.24 123.638 1168.22 118.011 1162.6C110.883 1155.42 104.72 1149.26 99.6289 1143.48C97.1102 1140.53 93.6268 1136.73 91.1616 1133.73C86.5528 1127.84 80.0147 1120.07 75.8346 1113.91C70.0468 1105.77 63.4016 1096.56 56.7027 1085.58C48.1282 1071.49 43.8409 1063.03 39.2857 1053.98C36.7669 1049 31.1935 1036.52 29.5858 1032.55C23.8516 1017.93 23.1013 1016 17.8494 999.346C12.0909 980.155 7.82667 960.547 5.09478 940.698C2.40484 920.1 1.1157 899.342 1.23625 878.569C1.21276 857.078 2.59118 835.609 5.36274 814.298C8.18916 793.215 12.4506 772.35 18.1173 751.847C22.5654 736.636 24.6018 729.727 30.0145 714.998C35.4272 700.269 39.6608 690.682 45.0199 678.577C54.5001 657.978 65.2386 637.98 77.1744 618.698C89.6957 598.756 103.573 579.698 118.707 561.657C134.594 542.754 151.652 524.865 169.779 508.097C181.408 497.117 193.627 487.048 205.471 477.3C211.955 471.944 226.157 461.232 231.462 457.215C235.482 454.216 257.079 438.148 289.715 417.849C286.9 419.577 284.429 421.811 282.427 424.437C188 483.638 117.635 552.605 71.333 631.338C25.9237 709.785 3.12979 791.713 2.95115 877.123C2.95115 960.319 24.8877 1033.82 68.7607 1097.63C113.777 1162.44 184.427 1211.6 280.712 1245.13C298.022 1263.61 360.67 1305.06 420.638 1337.68C376.03 1323.59 332.771 1305.54 291.377 1283.75Z" stroke="url(#paint34_linear_188_3144)" stroke-width="0.7" stroke-miterlimit="10"/>
</g>
<mask id="mask5_188_3144" style="mask-type:luminance" maskUnits="userSpaceOnUse" x="356" y="441" width="94" height="912">
<path d="M422.3 441.04L449.417 455.769C425.823 534.059 408.283 614.044 396.952 695.02C388.31 768.532 383.837 842.473 383.554 916.489C383.539 987.624 387.745 1058.7 396.148 1129.34C406.937 1205.03 424.203 1279.66 447.756 1352.41L420.639 1337.68C397.098 1264.93 379.832 1190.3 369.031 1114.61C360.611 1043.97 356.388 972.897 356.384 901.76C356.707 827.744 361.198 753.804 369.835 680.291C381.139 599.311 398.679 519.323 422.3 441.04Z" fill="white"/>
</mask>
<g mask="url(#mask5_188_3144)">
<path d="M422.3 441.04L449.417 455.769C425.823 534.059 408.283 614.044 396.952 695.02L369.835 680.291C381.139 599.311 398.679 519.323 422.3 441.04Z" stroke="url(#paint35_linear_188_3144)" stroke-width="0.7" stroke-miterlimit="10"/>
<path d="M397.166 535.037L424.337 549.766" stroke="url(#paint36_linear_188_3144)" stroke-width="0.7" stroke-miterlimit="10"/>
<path d="M380.875 611.628L407.992 626.41" stroke="url(#paint37_linear_188_3144)" stroke-width="0.7" stroke-miterlimit="10"/>
<path d="M369.835 680.291L396.952 695.02C388.31 768.532 383.837 842.473 383.554 916.489L356.384 901.761C356.707 827.744 361.198 753.804 369.835 680.291Z" stroke="url(#paint38_linear_188_3144)" stroke-width="0.7" stroke-miterlimit="10"/>
<path d="M362.601 751.151L389.771 765.933" stroke="url(#paint39_linear_188_3144)" stroke-width="0.7" stroke-miterlimit="10"/>
<path d="M422.3 441.04L449.417 455.769C425.823 534.059 408.283 614.044 396.952 695.02C388.31 768.532 383.837 842.473 383.554 916.489C383.539 987.624 387.745 1058.7 396.148 1129.34C406.937 1205.03 424.203 1279.66 447.756 1352.41L420.639 1337.68C397.098 1264.93 379.832 1190.3 369.031 1114.61C360.611 1043.97 356.388 972.897 356.384 901.76C356.707 827.744 361.198 753.804 369.835 680.291C381.139 599.311 398.679 519.323 422.3 441.04Z" stroke="url(#paint40_linear_188_3144)" stroke-width="0.7" stroke-miterlimit="10"/>
</g>
<mask id="mask6_188_3144" style="mask-type:luminance" maskUnits="userSpaceOnUse" x="92" y="441" width="358" height="858">
<path d="M291.378 1283.75C230.338 1250.54 191.645 1213.53 161.581 1170.68C110.831 1101.06 90.2517 1032.23 92.5025 939.038C90.6268 844.291 111.956 767.272 163.993 681.041C212.599 598.452 280.928 527.218 422.354 441.254L449.471 455.983C308.098 541.679 239.716 613.234 191.163 695.823C139.126 782.055 117.744 859.02 119.619 953.767C117.422 1046.96 137.947 1115.89 188.752 1185.47C218.816 1228.74 257.562 1265.54 318.602 1298.69L291.378 1283.75Z" fill="white"/>
</mask>
<g mask="url(#mask6_188_3144)">
<path d="M92.4482 938.824L119.565 953.553C117.689 858.806 139.072 781.84 191.109 695.609L163.938 680.827C111.902 767.058 90.5725 843.97 92.4482 938.824Z" stroke="url(#paint41_linear_188_3144)" stroke-width="0.7" stroke-miterlimit="10"/>
<path d="M121.87 764.969L148.987 779.698" stroke="url(#paint42_linear_188_3144)" stroke-width="0.7" stroke-miterlimit="10"/>
<path d="M163.938 680.827L191.109 695.609C239.662 613.02 308.044 541.732 449.417 455.769L422.3 441.04C280.874 527.003 212.545 598.238 163.938 680.827Z" stroke="url(#paint43_linear_188_3144)" stroke-width="0.7" stroke-miterlimit="10"/>
<path d="M221.066 601.023L248.237 615.805" stroke="url(#paint44_linear_188_3144)" stroke-width="0.7" stroke-miterlimit="10"/>
<path d="M303.221 523.04L330.391 537.769" stroke="url(#paint45_linear_188_3144)" stroke-width="0.7" stroke-miterlimit="10"/>
<path d="M291.377 1283.75C230.337 1250.54 191.644 1213.53 161.58 1170.68C110.83 1101.06 90.2507 1032.23 92.5015 939.038C90.6258 844.291 111.955 767.272 163.992 681.041C212.598 598.452 280.927 527.218 422.353 441.254L449.47 455.983C308.097 541.679 239.715 613.235 191.162 695.824C139.125 782.055 117.743 859.02 119.618 953.767C117.421 1046.96 137.946 1115.89 188.751 1185.47C218.815 1228.74 257.561 1265.54 318.601 1298.69L291.377 1283.75Z" stroke="url(#paint46_linear_188_3144)" stroke-width="0.7" stroke-miterlimit="10"/>
</g>
<mask id="mask7_188_3144" style="mask-type:luminance" maskUnits="userSpaceOnUse" x="383" y="455" width="149" height="932">
<path d="M530.07 549.981C526.372 562.996 522.139 577.832 516.565 600.273C509.652 628.392 505.204 650.673 505.204 650.726C504.833 654.151 504.17 657.538 503.221 660.849C498.237 685.701 494.164 712.052 492.503 722.014C488.43 748.259 485.643 773.967 484.411 785.001C482.857 799.301 480.66 824.206 479.588 839.364C478.623 853.664 477.123 875.195 475.944 906.902C475.622 915.258 475.193 930.469 474.979 941.555C474.711 954.41 474.657 962.979 474.55 976.851C474.55 976.851 474.55 1002.51 475.354 1033.41C476.533 1075.62 478.945 1109.52 480.713 1130.57C482.482 1151.62 484.143 1166.13 484.786 1171.65C486.179 1183.7 487.626 1196.12 491.485 1221.03C499.843 1276.23 512.383 1330.71 528.998 1384.01C531.732 1392.8 498.934 1380.42 447.433 1352.41C423.88 1279.66 406.614 1205.03 395.825 1129.34C387.422 1058.7 383.217 987.625 383.231 916.489C383.514 842.473 387.987 768.532 396.629 695.02C407.96 614.045 425.5 534.059 449.095 455.769C503.757 485.12 537.198 525.343 530.07 549.981Z" fill="white"/>
</mask>
<g mask="url(#mask7_188_3144)">
<path d="M449.417 455.769C509.385 488.387 543.897 533.752 526.534 557.104C508.142 621.579 494.811 687.389 486.662 753.936C497.059 753.936 456.919 727.638 396.951 695.02C408.282 614.045 425.822 534.059 449.417 455.769Z" stroke="url(#paint47_linear_188_3144)" stroke-width="0.7" stroke-miterlimit="10"/>
<path d="M499.953 491.333C477.016 567.725 460.048 645.782 449.202 724.799" stroke="url(#paint48_linear_188_3144)" stroke-width="0.7" stroke-miterlimit="10"/>
<path d="M527.605 527.968C506.521 599.404 491.057 672.378 481.356 746.223" stroke="url(#paint49_linear_188_3144)" stroke-width="0.7" stroke-miterlimit="10"/>
<path d="M424.175 549.82C484.143 582.384 522.621 613.663 509.92 619.448" stroke="url(#paint50_linear_188_3144)" stroke-width="0.7" stroke-miterlimit="10"/>
<path d="M408.098 626.41C468.066 659.028 507.937 685.326 497.112 685.326" stroke="url(#paint51_linear_188_3144)" stroke-width="0.7" stroke-miterlimit="10"/>
<path d="M396.95 695.02C456.919 727.638 497.058 753.936 486.661 753.936C477.469 828.332 472.923 903.229 473.049 978.19C483.768 976.744 443.521 949.107 383.553 916.49C383.836 842.473 388.309 768.532 396.95 695.02Z" stroke="url(#paint52_linear_188_3144)" stroke-width="0.7" stroke-miterlimit="10"/>
<path d="M449.202 724.799C440.457 798.428 435.966 872.499 435.751 946.644" stroke="url(#paint53_linear_188_3144)" stroke-width="0.7" stroke-miterlimit="10"/>
<path d="M481.356 745.955C472.45 819.911 467.941 894.328 467.852 968.817" stroke="url(#paint54_linear_188_3144)" stroke-width="0.7" stroke-miterlimit="10"/>
<path d="M389.77 765.933C449.738 798.551 489.77 825.277 479.213 825.652" stroke="url(#paint55_linear_188_3144)" stroke-width="0.7" stroke-miterlimit="10"/>
<path d="M530.07 549.981C526.372 562.996 522.139 577.832 516.565 600.273C509.652 628.392 505.204 650.673 505.204 650.726C504.833 654.151 504.17 657.538 503.221 660.849C498.237 685.701 494.164 712.052 492.503 722.014C488.43 748.259 485.643 773.967 484.411 785.001C482.857 799.301 480.66 824.206 479.588 839.364C478.623 853.664 477.123 875.195 475.944 906.902C475.622 915.258 475.193 930.469 474.979 941.555C474.711 954.41 474.657 962.979 474.55 976.851C474.55 976.851 474.55 1002.51 475.354 1033.41C476.533 1075.62 478.945 1109.52 480.713 1130.57C482.482 1151.62 484.143 1166.13 484.786 1171.65C486.179 1183.7 487.626 1196.12 491.485 1221.03C499.843 1276.23 512.383 1330.71 528.998 1384.01C531.732 1392.8 498.934 1380.42 447.433 1352.41C423.88 1279.66 406.614 1205.03 395.825 1129.34C387.422 1058.7 383.217 987.625 383.231 916.489C383.514 842.473 387.987 768.532 396.629 695.02C407.96 614.045 425.5 534.059 449.095 455.769C503.757 485.12 537.198 525.343 530.07 549.981Z" stroke="url(#paint56_linear_188_3144)" stroke-width="0.7" stroke-miterlimit="10"/>
</g>
<mask id="mask8_188_3144" style="mask-type:luminance" maskUnits="userSpaceOnUse" x="472" y="550" width="58" height="835">
<path d="M488.482 753.186C485.213 778.627 482.319 807.656 479.961 839.364C479.318 848.04 477.121 879.48 475.942 918.418C474.924 950.232 474.924 976.691 474.924 976.851C474.924 984.457 474.924 992.116 474.924 999.721C474.924 1007.22 474.924 1014.77 475.299 1022.27C475.299 1025.64 475.299 1030.09 475.299 1033.41C476.049 1060.19 477.121 1079.04 477.657 1088.15C477.979 1093.5 478.89 1107.91 479.05 1109.57C479.64 1116.59 480.015 1123.6 480.712 1130.62C483.123 1157.08 483.123 1157.08 484.785 1171.7C488.429 1203.84 493.198 1232.38 494.592 1240.42C502.897 1289.01 514.427 1337 529.104 1384.07C528.078 1381.78 526.602 1379.72 524.763 1378.01C506.476 1317.88 493.37 1256.29 485.588 1193.93C476.646 1122.39 472.385 1050.34 472.834 978.244C472.707 903.283 477.253 828.386 486.446 753.99C494.595 687.443 507.926 621.632 526.317 557.158C527.896 555.003 529.093 552.594 529.854 550.034C510.812 616.577 496.98 684.499 488.482 753.186Z" fill="white"/>
</mask>
<g mask="url(#mask8_188_3144)">
<path d="M449.416 455.769C509.384 488.387 543.896 533.752 526.533 557.104C508.141 621.579 494.81 687.389 486.661 753.936C497.058 753.936 456.918 727.638 396.95 695.02C408.281 614.045 425.821 534.059 449.416 455.769Z" stroke="url(#paint57_linear_188_3144)" stroke-width="0.7" stroke-miterlimit="10"/>
<path d="M424.174 549.82C484.142 582.384 522.62 613.663 509.919 619.448" stroke="url(#paint58_linear_188_3144)" stroke-width="0.7" stroke-miterlimit="10"/>
<path d="M408.097 626.41C468.065 659.028 507.936 685.326 497.111 685.326" stroke="url(#paint59_linear_188_3144)" stroke-width="0.7" stroke-miterlimit="10"/>
<path d="M396.949 695.02C456.918 727.638 497.057 753.936 486.66 753.936C477.468 828.332 472.922 903.229 473.048 978.19C483.767 976.744 443.52 949.107 383.552 916.49C383.835 842.473 388.308 768.532 396.949 695.02Z" stroke="url(#paint60_linear_188_3144)" stroke-width="0.7" stroke-miterlimit="10"/>
<path d="M389.769 765.933C449.737 798.551 489.769 825.277 479.212 825.652" stroke="url(#paint61_linear_188_3144)" stroke-width="0.7" stroke-miterlimit="10"/>
<path d="M488.483 753.186C485.214 778.627 482.32 807.656 479.962 839.364C479.319 848.04 477.122 879.48 475.943 918.418C474.925 950.232 474.925 976.691 474.925 976.851C474.925 984.457 474.925 992.116 474.925 999.721C474.925 1007.22 474.925 1014.77 475.3 1022.27C475.3 1025.64 475.3 1030.09 475.3 1033.41C476.05 1060.19 477.122 1079.04 477.658 1088.15C477.98 1093.5 478.891 1107.91 479.051 1109.57C479.641 1116.59 480.016 1123.6 480.713 1130.62C483.124 1157.08 483.124 1157.08 484.786 1171.7C488.43 1203.84 493.199 1232.38 494.593 1240.42C502.898 1289.01 514.428 1337 529.105 1384.07C528.079 1381.78 526.603 1379.72 524.764 1378.01C506.477 1317.88 493.371 1256.29 485.589 1193.93C476.647 1122.39 472.386 1050.34 472.835 978.244C472.708 903.282 477.254 828.386 486.447 753.989C494.596 687.442 507.927 621.632 526.318 557.158C527.897 555.003 529.094 552.594 529.855 550.034C510.813 616.577 496.981 684.499 488.483 753.186Z" stroke="url(#paint62_linear_188_3144)" stroke-width="0.7" stroke-miterlimit="10"/>
</g>
<mask id="mask9_188_3144" style="mask-type:luminance" maskUnits="userSpaceOnUse" x="119" y="455" width="413" height="932">
<path d="M318.545 1298.48C257.505 1265.32 218.759 1228.53 188.695 1185.25C137.891 1115.62 117.366 1046.75 119.563 953.553C117.687 858.806 139.07 781.841 191.106 695.609C239.66 613.02 308.042 541.732 449.414 455.769C509.382 488.387 543.895 533.752 526.531 557.104C432.104 616.234 361.74 685.201 315.437 764.005C270.028 842.595 247.323 924.595 247.323 1010C247.323 1093.13 269.26 1166.63 313.133 1230.51C358.149 1295.25 428.764 1344.4 524.977 1377.96C533.712 1387.28 529.264 1388.99 515.116 1384.28C481.408 1372.98 448.664 1360.45 417.742 1346.79C374.441 1328.04 343.304 1311.87 318.545 1298.48Z" fill="white"/>
</mask>
<g mask="url(#mask9_188_3144)">
<path d="M119.563 953.553C179.531 986.171 236.605 1011.4 247.324 1010C247.324 924.559 270.064 842.577 315.545 764.059C306.809 758.703 251.236 728.281 191.214 695.663C139.07 781.84 117.687 858.806 119.563 953.553Z" stroke="url(#paint63_linear_188_3144)" stroke-width="0.7" stroke-miterlimit="10"/>
<path d="M176.958 983.225C175.404 889.71 196.947 811.834 248.019 726.888" stroke="url(#paint64_linear_188_3144)" stroke-width="0.7" stroke-miterlimit="10"/>
<path d="M222.779 1003.2C221.922 913.115 243.947 833.633 292.447 751.472" stroke="url(#paint65_linear_188_3144)" stroke-width="0.7" stroke-miterlimit="10"/>
<path d="M148.984 779.698C208.952 812.316 266.563 840.917 277.602 843.648" stroke="url(#paint66_linear_188_3144)" stroke-width="0.7" stroke-miterlimit="10"/>
<path d="M191.106 695.609C251.075 728.227 306.702 758.863 315.437 764.005C361.704 685.451 432.069 616.484 526.531 557.104C543.895 533.752 509.382 488.387 449.414 455.769C308.042 541.732 239.66 613.02 191.106 695.609Z" stroke="url(#paint67_linear_188_3144)" stroke-width="0.7" stroke-miterlimit="10"/>
<path d="M248.02 726.674C296.251 644.621 364.955 573.654 499.896 491.333" stroke="url(#paint68_linear_188_3144)" stroke-width="0.7" stroke-miterlimit="10"/>
<path d="M292.661 751.204C340.089 670.543 409.435 600.38 527.603 527.968" stroke="url(#paint69_linear_188_3144)" stroke-width="0.7" stroke-miterlimit="10"/>
<path d="M248.234 615.805C308.202 648.423 362.597 680.988 369.725 688.54" stroke="url(#paint70_linear_188_3144)" stroke-width="0.7" stroke-miterlimit="10"/>
<path d="M330.389 537.823C390.357 570.44 439.5 607.022 440.25 619.555" stroke="url(#paint71_linear_188_3144)" stroke-width="0.7" stroke-miterlimit="10"/>
<path d="M318.545 1298.48C257.505 1265.32 218.759 1228.53 188.695 1185.25C137.891 1115.62 117.366 1046.75 119.563 953.553C117.687 858.806 139.07 781.841 191.106 695.609C239.66 613.02 308.042 541.732 449.414 455.769C509.382 488.387 543.895 533.752 526.531 557.104C432.104 616.234 361.74 685.201 315.437 764.005C270.028 842.595 247.323 924.595 247.323 1010C247.323 1093.13 269.26 1166.63 313.133 1230.51C358.149 1295.25 428.764 1344.4 524.977 1377.96C533.712 1387.28 529.264 1388.99 515.116 1384.28C481.408 1372.98 448.664 1360.45 417.742 1346.79C374.441 1328.04 343.304 1311.87 318.545 1298.48Z" stroke="url(#paint72_linear_188_3144)" stroke-width="0.7" stroke-miterlimit="10"/>
</g>
<mask id="mask10_188_3144" style="mask-type:luminance" maskUnits="userSpaceOnUse" x="536" y="38" width="1049" height="518">
<path d="M1584.58 392.033C1522.38 372.894 1448.39 362.379 1362.6 360.486C1276.82 358.594 1179.22 365.325 1069.78 380.678C967.614 394.175 866.843 416.705 768.658 448.003C679.804 477.139 602.473 513.024 536.663 555.658C579.107 405.262 646.042 286.985 737.468 200.825C829.965 114.558 940.952 62.3198 1070.43 44.1095C1193.9 26.7561 1299.72 47.4659 1387.9 106.239C1477.15 164.797 1542.7 260.062 1584.58 392.033Z" fill="white"/>
</mask>
<g mask="url(#mask10_188_3144)">
<path d="M1584.58 392.033C1522.38 372.894 1448.39 362.379 1362.6 360.486C1276.82 358.594 1179.22 365.325 1069.78 380.678C967.614 394.175 866.843 416.705 768.658 448.003C679.804 477.139 602.473 513.024 536.663 555.658C579.107 405.262 646.042 286.985 737.468 200.825C829.965 114.558 940.952 62.3198 1070.43 44.1095C1193.9 26.7561 1299.72 47.4659 1387.9 106.239C1477.15 164.797 1542.7 260.062 1584.58 392.033Z" stroke="url(#paint73_linear_188_3144)" stroke-width="0.7" stroke-miterlimit="10"/>
</g>
<mask id="mask11_188_3144" style="mask-type:luminance" maskUnits="userSpaceOnUse" x="292" y="-95" width="1049" height="518">
<path d="M1340.25 259.259C1278.09 240.084 1204.1 229.551 1118.28 227.659C1032.46 225.766 934.875 232.497 825.514 247.85C723.326 261.341 622.537 283.871 524.334 315.175C435.481 344.383 358.149 380.286 292.34 422.884C334.784 272.452 401.736 154.157 493.198 67.9971C585.66 -18.1268 696.629 -70.3654 826.104 -88.7185C949.577 -106.072 1055.4 -85.3621 1143.58 -26.5893C1232.79 32.005 1298.35 127.288 1340.25 259.259Z" fill="white"/>
</mask>
<g mask="url(#mask11_188_3144)">
<path d="M1340.25 259.259C1278.09 240.084 1204.1 229.551 1118.28 227.658C1032.46 225.766 934.875 232.497 825.514 247.85C723.326 261.341 622.537 283.871 524.334 315.175C435.481 344.383 358.149 380.286 292.34 422.884C334.784 272.452 401.736 154.157 493.198 67.9971C585.66 -18.1268 696.629 -70.3654 826.104 -88.7185C949.577 -106.072 1055.4 -85.3621 1143.58 -26.5893C1232.79 32.005 1298.35 127.288 1340.25 259.259Z" stroke="url(#paint74_linear_188_3144)" stroke-width="0.7" stroke-miterlimit="10"/>
</g>
<mask id="mask12_188_3144" style="mask-type:luminance" maskUnits="userSpaceOnUse" x="287" y="227" width="1193" height="298">
<path d="M1340.26 259.259C1357.46 276.826 1420 317.532 1479.97 350.31C1397.06 324.129 1310.88 309.706 1223.96 307.462C1139.24 305.588 1041.75 313.354 934.037 327.494C824.283 343.99 723.801 365.307 636.18 394.068C550.917 423.633 473.103 457.912 369.566 524.968C309.651 492.35 275.031 446.664 292.341 422.937C358.151 380.268 435.482 344.347 524.336 315.175C622.538 283.871 723.327 261.341 825.516 247.85C934.913 232.461 1032.5 225.73 1118.28 227.659C1204.06 229.587 1278.05 240.12 1340.26 259.259Z" fill="white"/>
</mask>
<g mask="url(#mask12_188_3144)">
<path d="M825.516 247.85C825.516 259.205 874.069 294.876 934.038 327.44C824.284 343.936 723.801 365.253 636.18 394.015C576.212 361.397 525.997 326.101 524.336 315.175C622.538 283.871 723.327 261.341 825.516 247.85Z" stroke="url(#paint75_linear_188_3144)" stroke-width="0.7" stroke-miterlimit="10"/>
<path d="M840.307 266.275C729.481 282.343 629.052 304.249 540.788 333.225" stroke="url(#paint76_linear_188_3144)" stroke-width="0.7" stroke-miterlimit="10"/>
<path d="M879.268 294.876C769.192 310.944 668.763 332.689 580.928 361.504" stroke="url(#paint77_linear_188_3144)" stroke-width="0.7" stroke-miterlimit="10"/>
<path d="M717.424 265.793C718.281 277.308 767.531 313.033 827.499 345.65" stroke="url(#paint78_linear_188_3144)" stroke-width="0.7" stroke-miterlimit="10"/>
<path d="M617.102 288.234C618.388 299.482 668.066 335.046 728.034 367.61" stroke="url(#paint79_linear_188_3144)" stroke-width="0.7" stroke-miterlimit="10"/>
<path d="M524.336 315.175C526.158 325.887 576.212 361.397 636.18 394.015C550.917 423.58 473.103 457.858 369.566 524.915C309.651 492.297 275.031 446.61 292.341 422.883C358.151 380.25 435.482 344.347 524.336 315.175Z" stroke="url(#paint80_linear_188_3144)" stroke-width="0.7" stroke-miterlimit="10"/>
<path d="M540.788 333.225C452.808 362.003 368.962 402.137 291.377 452.609" stroke="url(#paint81_linear_188_3144)" stroke-width="0.7" stroke-miterlimit="10"/>
<path d="M580.928 361.504C488.459 392.522 400.435 435.465 319.083 489.244" stroke="url(#paint82_linear_188_3144)" stroke-width="0.7" stroke-miterlimit="10"/>
<path d="M439.341 346.561C441.699 357.916 492.235 393.586 551.881 426.204" stroke="url(#paint83_linear_188_3144)" stroke-width="0.7" stroke-miterlimit="10"/>
<path d="M362.01 382.499C359.33 396.961 405.793 435.149 465.761 467.713" stroke="url(#paint84_linear_188_3144)" stroke-width="0.7" stroke-miterlimit="10"/>
<path d="M1340.26 259.259C1357.46 276.826 1420 317.532 1479.97 350.31C1397.06 324.129 1310.88 309.706 1223.96 307.462C1139.24 305.588 1041.75 313.354 934.037 327.494C824.283 343.99 723.801 365.307 636.18 394.068C550.917 423.633 473.103 457.912 369.566 524.968C309.651 492.35 275.031 446.664 292.341 422.937C358.151 380.268 435.482 344.347 524.336 315.175C622.538 283.871 723.327 261.341 825.516 247.85C934.913 232.461 1032.5 225.73 1118.28 227.659C1204.06 229.587 1278.05 240.12 1340.26 259.259Z" stroke="url(#paint85_linear_188_3144)" stroke-width="0.7" stroke-miterlimit="10"/>
</g>
<mask id="mask13_188_3144" style="mask-type:luminance" maskUnits="userSpaceOnUse" x="288" y="-99" width="1192" height="530">
<path d="M288.803 430.168C290.893 423.044 293.465 413.511 295.716 406.441C305.309 375.858 305.309 375.858 310.507 361.022C322.94 325.458 335.052 297.661 335.159 297.661C337.892 291.716 341.322 283.628 344.055 277.683C346.788 271.738 350.486 264.079 353.326 258.295C363.723 237.299 372.565 221.767 372.94 221.124C384.248 201.414 390.625 191.184 394.001 186.096C397.378 181.008 401.611 174.474 405.095 169.118C418.814 149.943 418.814 149.943 428.3 137.464C428.728 136.875 439.018 123.485 452.951 107.578C461.687 97.7763 461.687 97.7763 479.104 79.6196C491.644 66.6581 514.313 46.8946 521.226 41.3244C536.553 28.9521 539.715 26.3812 550.808 18.2937C559.811 11.7059 572.244 3.29701 581.516 -2.70167C602.37 -16.0658 624.066 -28.0703 646.468 -38.6402C669.072 -49.3403 692.342 -58.5717 716.136 -66.277C740.54 -74.2622 765.419 -80.7197 790.627 -85.6121C812.706 -90.004 846.04 -94.7172 868.226 -96.324C893.098 -98.5655 918.091 -99.1381 943.039 -98.0379C966.537 -96.9779 989.928 -94.2213 1013.03 -89.7897C1033.64 -85.8618 1054 -80.7291 1074.01 -74.4181C1094.06 -68.0445 1147.01 -51.1732 1228.03 -7.04C1240.04 -0.505722 1251.78 6.61771 1263.35 14.3839C1356.01 75.2277 1424.12 167.779 1479.75 350.203C1419.78 317.585 1357.24 276.88 1340.04 259.152C1298.13 127.038 1232.57 31.7551 1143.36 -26.6964C1055.37 -85.3978 949.613 -106.072 826.104 -88.7185C696.629 -70.5796 585.66 -18.3411 493.198 67.9971C401.736 154.192 334.784 272.488 292.34 422.884C290.749 425.089 289.552 427.554 288.803 430.168Z" fill="white"/>
</mask>
<g mask="url(#mask13_188_3144)">
<path d="M292.34 422.883C275.03 446.61 309.65 492.511 369.565 524.915C425.621 318.014 495.342 201.682 590.305 112.077C530.337 79.4588 486.768 59.7489 493.038 67.9971C401.683 154.192 334.784 272.488 292.34 422.883Z" stroke="url(#paint86_linear_188_3144)" stroke-width="0.7" stroke-miterlimit="10"/>
<path d="M291.376 452.609C340.626 273.72 409.276 156.424 502.309 68.5326" stroke="url(#paint87_linear_188_3144)" stroke-width="0.7" stroke-miterlimit="10"/>
<path d="M319.082 489.244C373.262 290.055 442.341 173.242 537.197 84.3328" stroke="url(#paint88_linear_188_3144)" stroke-width="0.7" stroke-miterlimit="10"/>
<path d="M342.93 283.146C331.408 285.182 370.583 313.247 430.605 345.865" stroke="url(#paint89_linear_188_3144)" stroke-width="0.7" stroke-miterlimit="10"/>
<path d="M409.919 164.887C401.559 158.834 443.413 180.365 503.381 213.09" stroke="url(#paint90_linear_188_3144)" stroke-width="0.7" stroke-miterlimit="10"/>
<path d="M493.198 67.9971C486.928 59.7489 530.712 79.4588 590.466 112.077C686.447 22.5249 796.04 -33.1772 934.733 -50.4769C874.765 -82.6127 826.104 -100.073 826.104 -88.7185C696.629 -70.5797 585.66 -18.3411 493.198 67.9971Z" stroke="url(#paint91_linear_188_3144)" stroke-width="0.7" stroke-miterlimit="10"/>
<path d="M502.309 68.5327C595.051 -19.7113 713.822 -75.6717 840.949 -91.0216" stroke="url(#paint92_linear_188_3144)" stroke-width="0.7" stroke-miterlimit="10"/>
<path d="M537.197 84.3328C632.696 -4.79053 742.504 -60.0105 879.696 -77.2568" stroke="url(#paint93_linear_188_3144)" stroke-width="0.7" stroke-miterlimit="10"/>
<path d="M591.805 -6.93294C586.929 -16.9486 631.623 1.36881 691.538 33.9867" stroke="url(#paint94_linear_188_3144)" stroke-width="0.7" stroke-miterlimit="10"/>
<path d="M288.804 430.168C290.894 423.044 293.466 413.511 295.717 406.441C305.31 375.858 305.31 375.858 310.508 361.022C322.941 325.458 335.053 297.661 335.16 297.661C337.893 291.716 341.323 283.628 344.056 277.683C346.789 271.738 350.487 264.079 353.327 258.295C363.724 237.299 372.566 221.767 372.941 221.124C384.249 201.414 390.626 191.184 394.002 186.096C397.379 181.008 401.612 174.474 405.096 169.118C418.815 149.943 418.815 149.943 428.301 137.464C428.729 136.875 439.019 123.485 452.952 107.578C461.688 97.7763 461.688 97.7763 479.105 79.6196C491.645 66.6581 514.314 46.8946 521.227 41.3244C536.554 28.9521 539.716 26.3812 550.809 18.2937C559.812 11.7059 572.245 3.29701 581.517 -2.70167C602.371 -16.0658 624.067 -28.0703 646.469 -38.6402C669.072 -49.3403 692.343 -58.5717 716.137 -66.277C740.541 -74.2622 765.42 -80.7197 790.628 -85.6121C812.707 -90.004 846.041 -94.7172 868.227 -96.324C893.099 -98.5655 918.092 -99.1381 943.04 -98.0379C966.538 -96.9779 989.929 -94.2213 1013.03 -89.7897C1033.64 -85.8618 1054.01 -80.7291 1074.02 -74.4181C1094.06 -68.0445 1147.01 -51.1732 1228.04 -7.04C1240.04 -0.505721 1251.78 6.61772 1263.35 14.3839C1356.01 75.2277 1424.12 167.779 1479.75 350.203C1419.78 317.585 1357.24 276.88 1340.04 259.152C1298.13 127.038 1232.57 31.7551 1143.36 -26.6964C1055.37 -85.3978 949.614 -106.072 826.105 -88.7185C696.63 -70.5796 585.661 -18.3411 493.199 67.9971C401.737 154.192 334.785 272.488 292.341 422.884C290.75 425.089 289.553 427.554 288.804 430.168Z" stroke="url(#paint95_linear_188_3144)" stroke-width="0.7" stroke-miterlimit="10"/>
</g>
<mask id="mask14_188_3144" style="mask-type:luminance" maskUnits="userSpaceOnUse" x="287" y="-99" width="942" height="624">
<path d="M492.717 66.3903C492.717 66.3903 512.064 48.0729 535.912 29.5412C540.36 26.0598 546.308 21.4537 550.863 18.2401C559.974 11.813 572.3 3.4041 581.571 -2.75526C607.673 -19.4558 635.075 -34.0351 663.511 -46.3528C668.87 -48.6023 675.569 -51.7088 680.821 -53.5298C691.539 -57.5468 705.527 -62.635 716.191 -66.277C723.265 -68.7408 743.844 -74.793 752.954 -76.989C764.262 -79.7741 779.428 -83.1483 790.843 -85.5585C796.631 -86.7904 804.455 -88.0758 810.297 -89.0399C822.515 -91.1287 835.109 -92.7355 849.686 -94.3959C855.045 -95.0921 862.708 -95.6813 868.282 -96.2705C876.588 -97.0739 898.132 -98.2522 907.725 -98.3057C918.443 -98.3057 932.484 -98.3057 943.041 -97.7701C949.15 -97.7701 957.242 -96.8596 963.298 -96.3776C963.298 -96.3776 982.055 -94.9315 1002.37 -91.4501C1021.77 -88.1294 1031.2 -86.0941 1044.92 -82.4521C1075.09 -74.6313 1104.64 -64.6065 1133.34 -52.4586C1151.24 -45.0674 1169.41 -36.3907 1174.87 -33.9806C1199.2 -22.251 1207.03 -17.9127 1228.47 -6.77224C1145.13 -52.2444 1050.81 -68.6337 934.734 -50.4769C796.041 -33.1772 686.448 22.5249 590.306 112.077C495.343 201.682 425.622 318.014 369.566 524.915C315.278 495.403 281.838 455.287 288.804 430.168C299.255 392.18 311.778 354.793 326.318 318.174C339.655 284.857 355.14 252.439 372.674 221.124C404.525 163.707 445.011 111.521 492.717 66.3903Z" fill="white"/>
</mask>
<g mask="url(#mask14_188_3144)">
<path d="M292.341 422.883C275.031 446.61 309.651 492.511 369.566 524.915C425.622 318.014 495.343 201.682 590.306 112.077C530.338 79.4588 486.769 59.7489 493.039 67.9971C401.684 154.192 334.785 272.488 292.341 422.883Z" stroke="url(#paint96_linear_188_3144)" stroke-width="0.7" stroke-miterlimit="10"/>
<path d="M291.377 452.609C340.627 273.72 409.277 156.424 502.31 68.5327" stroke="url(#paint97_linear_188_3144)" stroke-width="0.7" stroke-miterlimit="10"/>
<path d="M319.083 489.244C373.263 290.056 442.342 173.242 537.197 84.3328" stroke="url(#paint98_linear_188_3144)" stroke-width="0.7" stroke-miterlimit="10"/>
<path d="M342.931 283.146C331.409 285.182 370.584 313.247 430.606 345.865" stroke="url(#paint99_linear_188_3144)" stroke-width="0.7" stroke-miterlimit="10"/>
<path d="M409.92 164.887C401.559 158.834 443.414 180.365 503.382 213.09" stroke="url(#paint100_linear_188_3144)" stroke-width="0.7" stroke-miterlimit="10"/>
<path d="M493.199 67.9971C486.929 59.7489 530.713 79.4588 590.467 112.077C686.448 22.5249 796.041 -33.1771 934.734 -50.4769C874.766 -82.6127 826.105 -100.073 826.105 -88.7185C696.63 -70.5797 585.661 -18.3411 493.199 67.9971Z" stroke="url(#paint101_linear_188_3144)" stroke-width="0.7" stroke-miterlimit="10"/>
<path d="M502.31 68.5327C595.052 -19.7113 713.823 -75.6717 840.95 -91.0216" stroke="url(#paint102_linear_188_3144)" stroke-width="0.7" stroke-miterlimit="10"/>
<path d="M537.198 84.3328C632.697 -4.79051 742.505 -60.0105 879.697 -77.2567" stroke="url(#paint103_linear_188_3144)" stroke-width="0.7" stroke-miterlimit="10"/>
<path d="M591.806 -6.93289C586.93 -16.9485 631.624 1.36887 691.539 33.9867" stroke="url(#paint104_linear_188_3144)" stroke-width="0.7" stroke-miterlimit="10"/>
<path d="M492.716 66.3903C492.716 66.3903 512.063 48.0729 535.911 29.5412C540.359 26.0598 546.307 21.4537 550.862 18.2401C559.973 11.813 572.299 3.4041 581.57 -2.75526C607.672 -19.4558 635.074 -34.0351 663.51 -46.3528C668.869 -48.6023 675.568 -51.7088 680.82 -53.5298C691.538 -57.5468 705.526 -62.635 716.19 -66.277C723.264 -68.7408 743.843 -74.793 752.953 -76.989C764.261 -79.7741 779.427 -83.1483 790.842 -85.5585C796.63 -86.7904 804.454 -88.0758 810.296 -89.0399C822.514 -91.1287 835.108 -92.7355 849.685 -94.3959C855.044 -95.0921 862.707 -95.6813 868.281 -96.2705C876.587 -97.0739 898.131 -98.2522 907.724 -98.3057C918.442 -98.3057 932.483 -98.3057 943.04 -97.7701C949.149 -97.7701 957.242 -96.8596 963.297 -96.3776C963.297 -96.3776 982.054 -94.9315 1002.36 -91.4501C1021.76 -88.1294 1031.2 -86.0941 1044.92 -82.4521C1075.09 -74.6313 1104.64 -64.6065 1133.34 -52.4586C1151.24 -45.0674 1169.41 -36.3907 1174.87 -33.9806C1199.2 -22.251 1207.03 -17.9127 1228.46 -6.77224C1145.13 -52.2444 1050.81 -68.6337 934.733 -50.4769C796.04 -33.1772 686.447 22.5249 590.305 112.077C495.342 201.682 425.621 318.014 369.565 524.915C315.277 495.403 281.837 455.287 288.803 430.168C299.254 392.18 311.777 354.793 326.317 318.174C339.654 284.857 355.139 252.439 372.673 221.124C404.524 163.707 445.01 111.521 492.716 66.3903Z" stroke="url(#paint105_linear_188_3144)" stroke-width="0.7" stroke-miterlimit="10"/>
</g>
<mask id="mask15_188_3144" style="mask-type:luminance" maskUnits="userSpaceOnUse" x="369" y="307" width="1139" height="233">
<path d="M1479.91 350.149L1507.03 364.932C1424.14 338.752 1337.98 324.329 1251.08 322.084C1166.36 320.21 1068.87 327.922 961.156 342.116C851.348 358.558 750.919 379.875 663.245 408.69C577.982 438.202 500.222 472.48 396.684 539.536L369.514 524.808C473.105 457.858 550.918 423.58 636.181 394.068C723.802 365.307 824.285 343.99 934.039 327.494C1041.6 313.354 1139.24 305.588 1223.97 307.462C1310.86 309.659 1397.02 324.028 1479.91 350.149Z" fill="white"/>
</mask>
<g mask="url(#mask15_188_3144)">
<path d="M934.038 327.44L961.209 342.223C851.401 358.665 750.972 379.982 663.298 408.797L636.181 394.068C723.802 365.253 824.284 343.937 934.038 327.44Z" stroke="url(#paint106_linear_188_3144)" stroke-width="0.7" stroke-miterlimit="10"/>
<path d="M727.929 367.61L755.099 382.339" stroke="url(#paint107_linear_188_3144)" stroke-width="0.7" stroke-miterlimit="10"/>
<path d="M636.181 394.068L663.298 408.851C578.035 438.362 500.274 472.64 396.737 539.697L369.566 524.968C473.104 457.858 550.918 423.58 636.181 394.068Z" stroke="url(#paint108_linear_188_3144)" stroke-width="0.7" stroke-miterlimit="10"/>
<path d="M552.15 426.151L579.267 440.933" stroke="url(#paint109_linear_188_3144)" stroke-width="0.7" stroke-miterlimit="10"/>
<path d="M465.762 467.713L492.879 482.442" stroke="url(#paint110_linear_188_3144)" stroke-width="0.7" stroke-miterlimit="10"/>
<path d="M1479.91 350.15L1507.03 364.932C1424.14 338.752 1337.98 324.329 1251.08 322.084C1166.36 320.21 1068.87 327.922 961.156 342.116C851.348 358.558 750.919 379.875 663.245 408.69C577.982 438.202 500.222 472.48 396.684 539.537L369.514 524.808C473.105 457.858 550.918 423.58 636.181 394.068C723.802 365.307 824.285 343.99 934.039 327.494C1041.6 313.354 1139.24 305.588 1223.97 307.462C1310.86 309.659 1397.02 324.028 1479.91 350.15Z" stroke="url(#paint111_linear_188_3144)" stroke-width="0.7" stroke-miterlimit="10"/>
</g>
<mask id="mask16_188_3144" style="mask-type:luminance" maskUnits="userSpaceOnUse" x="369" y="-58" width="887" height="598">
<path d="M1255.37 7.689C1172.3 -37.4618 1077.93 -53.9046 961.906 -35.5337C823.213 -18.341 713.567 37.254 617.586 126.859C522.515 216.465 452.74 332.796 396.738 539.644L369.567 524.915C425.623 318.014 495.345 201.682 590.308 112.077C686.45 22.525 796.043 -33.177 934.736 -50.4768C1050.81 -68.8478 1145.13 -52.4585 1228.25 -7.25416L1255.37 7.689Z" fill="white"/>
</mask>
<g mask="url(#mask16_188_3144)">
<path d="M369.567 524.914L396.738 539.643C452.74 332.796 522.515 216.464 617.586 126.859L590.308 112.076C495.345 201.681 425.623 318.013 369.567 524.914Z" stroke="url(#paint112_linear_188_3144)" stroke-width="0.7" stroke-miterlimit="10"/>
<path d="M430.607 345.811L457.724 360.593" stroke="url(#paint113_linear_188_3144)" stroke-width="0.7" stroke-miterlimit="10"/>
<path d="M503.384 212.929L530.501 227.712" stroke="url(#paint114_linear_188_3144)" stroke-width="0.7" stroke-miterlimit="10"/>
<path d="M590.308 112.077L617.425 126.859C713.566 37.254 823.213 -18.341 961.906 -35.5337L934.736 -50.4768C796.043 -33.177 686.449 22.525 590.308 112.077Z" stroke="url(#paint115_linear_188_3144)" stroke-width="0.7" stroke-miterlimit="10"/>
<path d="M691.541 33.9325L718.658 48.715" stroke="url(#paint116_linear_188_3144)" stroke-width="0.7" stroke-miterlimit="10"/>
<path d="M1255.37 7.689C1172.3 -37.4618 1077.93 -53.9046 961.906 -35.5337C823.213 -18.341 713.567 37.2539 617.586 126.859C522.515 216.465 452.74 332.796 396.738 539.644L369.567 524.915C425.623 318.014 495.345 201.682 590.308 112.077C686.45 22.525 796.043 -33.177 934.736 -50.4768C1050.81 -68.8478 1145.13 -52.4585 1228.25 -7.25416L1255.37 7.689Z" stroke="url(#paint117_linear_188_3144)" stroke-width="0.7" stroke-miterlimit="10"/>
</g>
<mask id="mask17_188_3144" style="mask-type:luminance" maskUnits="userSpaceOnUse" x="396" y="322" width="1183" height="248">
<path d="M1578.3 398.46C1542.93 387.422 1506.75 379.114 1470.1 373.609C1431.94 368.169 1393.48 364.967 1354.94 364.021C1304.87 363.091 1254.79 364.682 1204.88 368.788C1163.62 372.002 1132.38 375.644 1113.78 377.84C1075.09 382.392 1045.5 386.999 1032.86 388.98C929.32 405.048 832.749 428.079 753.703 455.341C725.782 464.928 703.81 473.551 690.305 479.068C663.831 489.78 647.432 497.546 630.176 505.848C595.501 522.624 561.89 541.512 529.532 562.407C505.899 577.725 450.218 568.887 396.734 539.751C500.272 472.694 578.032 438.416 663.295 408.904C750.97 380.089 851.399 358.773 961.206 342.33C1068.76 328.137 1166.41 320.424 1251.13 322.299C1338.03 324.543 1424.19 338.966 1507.08 365.146C1529.88 378.166 1553.7 389.307 1578.3 398.46Z" fill="white"/>
</mask>
<g mask="url(#mask17_188_3144)">
<path d="M961.206 342.223C1021.12 374.787 1069.78 392.033 1069.78 380.679C967.611 394.176 866.84 416.705 768.654 448.003C770.423 458.715 723.263 441.362 663.295 408.797C751.077 379.982 851.399 358.665 961.206 342.223Z" stroke="url(#paint118_linear_188_3144)" stroke-width="0.7" stroke-miterlimit="10"/>
<path d="M1015.98 369.217C905.901 385.285 805.472 407.03 717.69 435.845" stroke="url(#paint119_linear_188_3144)" stroke-width="0.7" stroke-miterlimit="10"/>
<path d="M1054.94 382.982C944.111 399.05 843.682 420.955 755.472 449.931" stroke="url(#paint120_linear_188_3144)" stroke-width="0.7" stroke-miterlimit="10"/>
<path d="M755.096 382.392C815.064 415.01 862.652 432.31 861.366 421.062" stroke="url(#paint121_linear_188_3144)" stroke-width="0.7" stroke-miterlimit="10"/>
<path d="M663.295 408.797C723.263 441.362 770.477 458.929 768.654 448.003C679.801 477.139 602.469 513.024 536.66 555.658C519.35 579.438 456.702 572.261 396.734 539.59C500.272 472.587 578.032 438.309 663.295 408.797Z" stroke="url(#paint122_linear_188_3144)" stroke-width="0.7" stroke-miterlimit="10"/>
<path d="M717.69 435.845C625.204 466.862 537.162 509.804 455.792 563.585" stroke="url(#paint123_linear_188_3144)" stroke-width="0.7" stroke-miterlimit="10"/>
<path d="M755.471 449.931C667.473 478.709 583.61 518.843 506.006 569.316" stroke="url(#paint124_linear_188_3144)" stroke-width="0.7" stroke-miterlimit="10"/>
<path d="M579.586 440.933C639.554 473.551 686.232 490.744 683.927 479.389" stroke="url(#paint125_linear_188_3144)" stroke-width="0.7" stroke-miterlimit="10"/>
<path d="M492.93 482.495C552.898 515.113 603.648 529.789 606.328 515.274" stroke="url(#paint126_linear_188_3144)" stroke-width="0.7" stroke-miterlimit="10"/>
<path d="M1578.31 398.46C1542.93 387.422 1506.76 379.114 1470.11 373.609C1431.94 368.169 1393.48 364.967 1354.94 364.021C1304.87 363.091 1254.79 364.682 1204.88 368.788C1163.62 372.002 1132.38 375.644 1113.78 377.84C1075.09 382.392 1045.51 386.999 1032.86 388.98C929.321 405.048 832.75 428.079 753.704 455.341C725.783 464.928 703.811 473.551 690.306 479.068C663.832 489.78 647.433 497.546 630.177 505.847C595.502 522.624 561.891 541.512 529.533 562.406C505.9 577.725 450.219 568.887 396.735 539.751C500.273 472.694 578.033 438.416 663.296 408.904C750.971 380.089 851.4 358.773 961.207 342.33C1068.76 328.136 1166.41 320.424 1251.13 322.298C1338.04 324.543 1424.19 338.966 1507.08 365.146C1529.88 378.166 1553.7 389.307 1578.31 398.46Z" stroke="url(#paint127_linear_188_3144)" stroke-width="0.7" stroke-miterlimit="10"/>
</g>
<mask id="mask18_188_3144" style="mask-type:luminance" maskUnits="userSpaceOnUse" x="529" y="360" width="1060" height="203">
<path d="M1354.94 364.021C1341.01 363.646 1302.63 363.057 1248.13 365.95C1193.63 368.842 1143.36 374.412 1129.32 376.019C1044.81 385.354 960.942 399.842 878.196 419.402C862.815 423.098 822.569 433.113 780.125 446.61C760.671 452.77 747.059 457.322 740.736 459.84C726.588 465.196 710.51 470.552 690.307 479.068C671.175 486.887 641.753 499.367 606.973 517.416C569.459 536.698 543.575 553.355 529.534 562.299C532.296 560.54 534.712 558.289 536.662 555.658C602.471 513.096 679.803 477.211 768.656 448.003C866.842 416.705 967.613 394.175 1069.78 380.678C1179.22 365.289 1276.82 358.558 1362.6 360.486C1448.38 362.415 1522.38 372.93 1584.58 392.033C1592.4 400.067 1589.45 401.942 1578.31 398.46C1542.64 387.332 1506.16 378.988 1469.2 373.501C1431.34 368.009 1393.18 364.843 1354.94 364.021Z" fill="white"/>
</mask>
<g mask="url(#mask18_188_3144)">
<path d="M961.207 342.223C1021.12 374.787 1069.78 392.033 1069.78 380.678C967.612 394.176 866.841 416.705 768.655 448.003C770.424 458.715 723.264 441.362 663.296 408.797C751.078 379.982 851.4 358.665 961.207 342.223Z" stroke="url(#paint128_linear_188_3144)" stroke-width="0.7" stroke-miterlimit="10"/>
<path d="M1054.94 382.982C944.112 399.049 843.683 420.955 755.473 449.931" stroke="url(#paint129_linear_188_3144)" stroke-width="0.7" stroke-miterlimit="10"/>
<path d="M755.097 382.392C815.065 415.01 862.653 432.31 861.367 421.062" stroke="url(#paint130_linear_188_3144)" stroke-width="0.7" stroke-miterlimit="10"/>
<path d="M663.296 408.797C723.264 441.362 770.478 458.929 768.655 448.003C679.802 477.139 602.47 513.024 536.661 555.658C519.351 579.438 456.703 572.261 396.735 539.59C500.273 472.587 578.033 438.309 663.296 408.797Z" stroke="url(#paint131_linear_188_3144)" stroke-width="0.7" stroke-miterlimit="10"/>
<path d="M755.472 449.931C667.474 478.709 583.61 518.843 506.007 569.316" stroke="url(#paint132_linear_188_3144)" stroke-width="0.7" stroke-miterlimit="10"/>
<path d="M579.588 440.933C639.556 473.551 686.234 490.744 683.929 479.389" stroke="url(#paint133_linear_188_3144)" stroke-width="0.7" stroke-miterlimit="10"/>
<path d="M492.931 482.495C552.899 515.113 603.649 529.789 606.329 515.274" stroke="url(#paint134_linear_188_3144)" stroke-width="0.7" stroke-miterlimit="10"/>
<path d="M1354.94 364.021C1341.01 363.646 1302.63 363.057 1248.13 365.95C1193.63 368.842 1143.36 374.412 1129.32 376.019C1044.81 385.354 960.942 399.842 878.196 419.402C862.815 423.098 822.569 433.113 780.125 446.61C760.671 452.77 747.059 457.322 740.735 459.84C726.588 465.196 710.51 470.552 690.307 479.068C671.175 486.887 641.753 499.367 606.973 517.416C569.459 536.698 543.575 553.355 529.534 562.299C532.296 560.54 534.712 558.289 536.662 555.658C602.471 513.096 679.803 477.211 768.656 448.003C866.842 416.705 967.613 394.175 1069.78 380.678C1179.22 365.289 1276.82 358.558 1362.6 360.486C1448.38 362.415 1522.37 372.93 1584.58 392.033C1592.4 400.067 1589.45 401.942 1578.31 398.46C1542.64 387.332 1506.16 378.988 1469.2 373.501C1431.34 368.009 1393.18 364.843 1354.94 364.021Z" stroke="url(#paint135_linear_188_3144)" stroke-width="0.7" stroke-miterlimit="10"/>
</g>
<mask id="mask19_188_3144" style="mask-type:luminance" maskUnits="userSpaceOnUse" x="396" y="-43" width="1193" height="613">
<path d="M1336.5 56.3211C1423.27 113.201 1464.37 160.709 1493.15 199.647C1496.63 204.306 1501.08 210.359 1504.24 215.447C1510.24 224.659 1518.07 236.871 1523.75 246.511C1523.75 246.511 1536.24 268.257 1542.51 281.218C1547.86 291.93 1554.35 306.445 1559.23 317.317C1561.8 322.995 1564.85 330.707 1567.16 336.545C1572.52 349.56 1572.52 349.56 1581.95 376.661C1584.15 382.928 1586.77 391.444 1588.81 398.085C1587.83 395.872 1586.39 393.898 1584.57 392.301C1542.67 260.187 1477.11 164.922 1387.9 106.506C1299.76 47.698 1193.93 26.9882 1070.42 44.3773C940.949 62.5518 829.962 114.79 737.465 201.093C646.039 287.11 579.122 405.298 536.714 555.658C519.404 579.438 456.756 572.261 396.788 539.59C452.79 332.743 522.566 216.411 617.636 126.806C713.563 37.2538 823.21 -18.3411 961.903 -35.5338C1077.93 -53.9047 1172.3 -37.4619 1255.37 7.68888C1291.49 27.3988 1315.71 42.7169 1336.5 56.3211Z" fill="white"/>
</mask>
<g mask="url(#mask19_188_3144)">
<path d="M396.734 539.644C456.702 572.261 519.35 579.438 536.66 555.711C579.104 405.316 646.039 287.038 737.465 200.879C731.248 192.63 677.55 159.477 617.582 126.913C522.512 216.464 452.737 332.796 396.734 539.644Z" stroke="url(#paint136_linear_188_3144)" stroke-width="0.7" stroke-miterlimit="10"/>
<path d="M455.792 563.585C509.919 364.396 579.587 247.797 673.906 158.674" stroke="url(#paint137_linear_188_3144)" stroke-width="0.7" stroke-miterlimit="10"/>
<path d="M506.006 569.316C555.309 390.426 623.906 273.131 716.939 185.239" stroke="url(#paint138_linear_188_3144)" stroke-width="0.7" stroke-miterlimit="10"/>
<path d="M457.774 360.594C517.743 393.211 575.674 418.01 587.25 415.974" stroke="url(#paint139_linear_188_3144)" stroke-width="0.7" stroke-miterlimit="10"/>
<path d="M530.497 227.712C590.304 260.169 645.878 291.662 654.185 297.661" stroke="url(#paint140_linear_188_3144)" stroke-width="0.7" stroke-miterlimit="10"/>
<path d="M617.582 126.859C677.55 159.423 731.248 192.577 737.465 200.825C829.962 114.558 940.949 62.3198 1070.42 44.1095C1070.42 32.7548 1021.87 -2.91592 961.903 -35.5338C823.21 -18.3411 713.563 37.2538 617.582 126.859Z" stroke="url(#paint141_linear_188_3144)" stroke-width="0.7" stroke-miterlimit="10"/>
<path d="M673.906 158.674C769.459 69.5503 879.266 14.3303 1016.89 -2.91594" stroke="url(#paint142_linear_188_3144)" stroke-width="0.7" stroke-miterlimit="10"/>
<path d="M716.939 185.186C809.702 96.9308 928.487 40.9538 1055.63 25.5778" stroke="url(#paint143_linear_188_3144)" stroke-width="0.7" stroke-miterlimit="10"/>
<path d="M718.922 48.7156C778.89 81.3334 831.463 115.879 836.339 125.895" stroke="url(#paint144_linear_188_3144)" stroke-width="0.7" stroke-miterlimit="10"/>
<path d="M1336.5 56.3211C1423.27 113.201 1464.37 160.709 1493.15 199.647C1496.63 204.306 1501.08 210.359 1504.24 215.447C1510.24 224.659 1518.07 236.871 1523.75 246.511C1523.75 246.511 1536.24 268.257 1542.51 281.218C1547.87 291.93 1554.35 306.445 1559.23 317.317C1561.8 322.995 1564.85 330.707 1567.16 336.545C1572.52 349.56 1572.52 349.56 1581.95 376.661C1584.15 382.928 1586.77 391.444 1588.81 398.085C1587.84 395.872 1586.39 393.898 1584.58 392.301C1542.67 260.187 1477.11 164.922 1387.9 106.506C1299.76 47.698 1193.93 26.9882 1070.43 44.3773C940.95 62.5518 829.963 114.79 737.466 201.093C646.04 287.11 579.123 405.298 536.715 555.658C519.405 579.438 456.757 572.261 396.789 539.59C452.791 332.743 522.567 216.411 617.637 126.806C713.564 37.2538 823.211 -18.3411 961.904 -35.5338C1077.93 -53.9047 1172.3 -37.4619 1255.37 7.68889C1291.49 27.3988 1315.71 42.7169 1336.5 56.3211Z" stroke="url(#paint145_linear_188_3144)" stroke-width="0.7" stroke-miterlimit="10"/>
</g>
<defs>
<linearGradient id="paint0_linear_188_3144" x1="386.93" y1="557.104" x2="386.93" y2="1377.96" gradientUnits="userSpaceOnUse">
<stop stop-color="#FFA7E1"/>
<stop offset="1" stop-color="#A7C3FF"/>
</linearGradient>
<linearGradient id="paint1_linear_188_3144" x1="142.58" y1="424.276" x2="142.58" y2="1245.13" gradientUnits="userSpaceOnUse">
<stop stop-color="#FFA7E1"/>
<stop offset="1" stop-color="#A7C3FF"/>
</linearGradient>
<linearGradient id="paint2_linear_188_3144" x1="332.318" y1="410.63" x2="332.318" y2="680.291" gradientUnits="userSpaceOnUse">
<stop stop-color="#FFA7E1"/>
<stop offset="1" stop-color="#A7C3FF"/>
</linearGradient>
<linearGradient id="paint3_linear_188_3144" x1="289.82" y1="410.993" x2="289.82" y2="629.249" gradientUnits="userSpaceOnUse">
<stop stop-color="#FFA7E1"/>
<stop offset="1" stop-color="#A7C3FF"/>
</linearGradient>
<linearGradient id="paint4_linear_188_3144" x1="337.811" y1="416.992" x2="337.811" y2="650.459" gradientUnits="userSpaceOnUse">
<stop stop-color="#FFA7E1"/>
<stop offset="1" stop-color="#A7C3FF"/>
</linearGradient>
<linearGradient id="paint5_linear_188_3144" x1="331.621" y1="485.833" x2="331.621" y2="535.038" gradientUnits="userSpaceOnUse">
<stop stop-color="#FFA7E1"/>
<stop offset="1" stop-color="#A7C3FF"/>
</linearGradient>
<linearGradient id="paint6_linear_188_3144" x1="316.749" y1="552.444" x2="316.749" y2="611.681" gradientUnits="userSpaceOnUse">
<stop stop-color="#FFA7E1"/>
<stop offset="1" stop-color="#A7C3FF"/>
</linearGradient>
<linearGradient id="paint7_linear_188_3144" x1="299.278" y1="621.108" x2="299.278" y2="901.761" gradientUnits="userSpaceOnUse">
<stop stop-color="#FFA7E1"/>
<stop offset="1" stop-color="#A7C3FF"/>
</linearGradient>
<linearGradient id="paint8_linear_188_3144" x1="259.97" y1="629.249" x2="259.97" y2="852.111" gradientUnits="userSpaceOnUse">
<stop stop-color="#FFA7E1"/>
<stop offset="1" stop-color="#A7C3FF"/>
</linearGradient>
<linearGradient id="paint9_linear_188_3144" x1="305.71" y1="650.459" x2="305.71" y2="872.303" gradientUnits="userSpaceOnUse">
<stop stop-color="#FFA7E1"/>
<stop offset="1" stop-color="#A7C3FF"/>
</linearGradient>
<linearGradient id="paint10_linear_188_3144" x1="298.77" y1="692.82" x2="298.77" y2="751.204" gradientUnits="userSpaceOnUse">
<stop stop-color="#FFA7E1"/>
<stop offset="1" stop-color="#A7C3FF"/>
</linearGradient>
<linearGradient id="paint11_linear_188_3144" x1="294.349" y1="767.575" x2="294.349" y2="825.224" gradientUnits="userSpaceOnUse">
<stop stop-color="#FFA7E1"/>
<stop offset="1" stop-color="#A7C3FF"/>
</linearGradient>
<linearGradient id="paint12_linear_188_3144" x1="325.497" y1="410.63" x2="325.497" y2="1337.68" gradientUnits="userSpaceOnUse">
<stop stop-color="#FFA7E1"/>
<stop offset="1" stop-color="#A7C3FF"/>
</linearGradient>
<linearGradient id="paint13_linear_188_3144" x1="82.5804" y1="630.438" x2="82.5804" y2="938.824" gradientUnits="userSpaceOnUse">
<stop stop-color="#FFA7E1"/>
<stop offset="1" stop-color="#A7C3FF"/>
</linearGradient>
<linearGradient id="paint14_linear_188_3144" x1="42.9704" y1="634.766" x2="42.9704" y2="886.817" gradientUnits="userSpaceOnUse">
<stop stop-color="#FFA7E1"/>
<stop offset="1" stop-color="#A7C3FF"/>
</linearGradient>
<linearGradient id="paint15_linear_188_3144" x1="75.7394" y1="652.333" x2="75.7394" y2="908.67" gradientUnits="userSpaceOnUse">
<stop stop-color="#FFA7E1"/>
<stop offset="1" stop-color="#A7C3FF"/>
</linearGradient>
<linearGradient id="paint16_linear_188_3144" x1="53.6095" y1="792.801" x2="53.6095" y2="849.004" gradientUnits="userSpaceOnUse">
<stop stop-color="#FFA7E1"/>
<stop offset="1" stop-color="#A7C3FF"/>
</linearGradient>
<linearGradient id="paint17_linear_188_3144" x1="76.6803" y1="710.663" x2="76.6803" y2="764.969" gradientUnits="userSpaceOnUse">
<stop stop-color="#FFA7E1"/>
<stop offset="1" stop-color="#A7C3FF"/>
</linearGradient>
<linearGradient id="paint18_linear_188_3144" x1="246.135" y1="410.691" x2="246.135" y2="680.827" gradientUnits="userSpaceOnUse">
<stop stop-color="#FFA7E1"/>
<stop offset="1" stop-color="#A7C3FF"/>
</linearGradient>
<linearGradient id="paint19_linear_188_3144" x1="195.45" y1="410.993" x2="195.45" y2="634.498" gradientUnits="userSpaceOnUse">
<stop stop-color="#FFA7E1"/>
<stop offset="1" stop-color="#A7C3FF"/>
</linearGradient>
<linearGradient id="paint20_linear_188_3144" x1="237.25" y1="416.992" x2="237.25" y2="652.333" gradientUnits="userSpaceOnUse">
<stop stop-color="#FFA7E1"/>
<stop offset="1" stop-color="#A7C3FF"/>
</linearGradient>
<linearGradient id="paint21_linear_188_3144" x1="172.876" y1="554.135" x2="172.876" y2="601.077" gradientUnits="userSpaceOnUse">
<stop stop-color="#FFA7E1"/>
<stop offset="1" stop-color="#A7C3FF"/>
</linearGradient>
<linearGradient id="paint22_linear_188_3144" x1="249.411" y1="482.499" x2="249.411" y2="523.04" gradientUnits="userSpaceOnUse">
<stop stop-color="#FFA7E1"/>
<stop offset="1" stop-color="#A7C3FF"/>
</linearGradient>
<linearGradient id="paint23_linear_188_3144" x1="211.672" y1="410.705" x2="211.672" y2="1283.96" gradientUnits="userSpaceOnUse">
<stop stop-color="#FFA7E1"/>
<stop offset="1" stop-color="#A7C3FF"/>
</linearGradient>
<linearGradient id="paint24_linear_188_3144" x1="82.5804" y1="630.438" x2="82.5804" y2="938.824" gradientUnits="userSpaceOnUse">
<stop stop-color="#FFA7E1"/>
<stop offset="1" stop-color="#A7C3FF"/>
</linearGradient>
<linearGradient id="paint25_linear_188_3144" x1="42.9704" y1="634.766" x2="42.9704" y2="886.817" gradientUnits="userSpaceOnUse">
<stop stop-color="#FFA7E1"/>
<stop offset="1" stop-color="#A7C3FF"/>
</linearGradient>
<linearGradient id="paint26_linear_188_3144" x1="75.7394" y1="652.333" x2="75.7394" y2="908.67" gradientUnits="userSpaceOnUse">
<stop stop-color="#FFA7E1"/>
<stop offset="1" stop-color="#A7C3FF"/>
</linearGradient>
<linearGradient id="paint27_linear_188_3144" x1="53.6095" y1="792.801" x2="53.6095" y2="849.004" gradientUnits="userSpaceOnUse">
<stop stop-color="#FFA7E1"/>
<stop offset="1" stop-color="#A7C3FF"/>
</linearGradient>
<linearGradient id="paint28_linear_188_3144" x1="76.6803" y1="710.663" x2="76.6803" y2="764.969" gradientUnits="userSpaceOnUse">
<stop stop-color="#FFA7E1"/>
<stop offset="1" stop-color="#A7C3FF"/>
</linearGradient>
<linearGradient id="paint29_linear_188_3144" x1="246.135" y1="410.691" x2="246.135" y2="680.827" gradientUnits="userSpaceOnUse">
<stop stop-color="#FFA7E1"/>
<stop offset="1" stop-color="#A7C3FF"/>
</linearGradient>
<linearGradient id="paint30_linear_188_3144" x1="195.45" y1="410.993" x2="195.45" y2="634.498" gradientUnits="userSpaceOnUse">
<stop stop-color="#FFA7E1"/>
<stop offset="1" stop-color="#A7C3FF"/>
</linearGradient>
<linearGradient id="paint31_linear_188_3144" x1="237.25" y1="416.992" x2="237.25" y2="652.333" gradientUnits="userSpaceOnUse">
<stop stop-color="#FFA7E1"/>
<stop offset="1" stop-color="#A7C3FF"/>
</linearGradient>
<linearGradient id="paint32_linear_188_3144" x1="172.876" y1="554.135" x2="172.876" y2="601.077" gradientUnits="userSpaceOnUse">
<stop stop-color="#FFA7E1"/>
<stop offset="1" stop-color="#A7C3FF"/>
</linearGradient>
<linearGradient id="paint33_linear_188_3144" x1="249.411" y1="482.499" x2="249.411" y2="523.04" gradientUnits="userSpaceOnUse">
<stop stop-color="#FFA7E1"/>
<stop offset="1" stop-color="#A7C3FF"/>
</linearGradient>
<linearGradient id="paint34_linear_188_3144" x1="210.933" y1="417.849" x2="210.933" y2="1337.68" gradientUnits="userSpaceOnUse">
<stop stop-color="#FFA7E1"/>
<stop offset="1" stop-color="#A7C3FF"/>
</linearGradient>
<linearGradient id="paint35_linear_188_3144" x1="409.626" y1="441.04" x2="409.626" y2="695.02" gradientUnits="userSpaceOnUse">
<stop stop-color="#FFA7E1"/>
<stop offset="1" stop-color="#A7C3FF"/>
</linearGradient>
<linearGradient id="paint36_linear_188_3144" x1="410.751" y1="535.037" x2="410.751" y2="549.766" gradientUnits="userSpaceOnUse">
<stop stop-color="#FFA7E1"/>
<stop offset="1" stop-color="#A7C3FF"/>
</linearGradient>
<linearGradient id="paint37_linear_188_3144" x1="394.433" y1="611.628" x2="394.433" y2="626.41" gradientUnits="userSpaceOnUse">
<stop stop-color="#FFA7E1"/>
<stop offset="1" stop-color="#A7C3FF"/>
</linearGradient>
<linearGradient id="paint38_linear_188_3144" x1="376.668" y1="680.291" x2="376.668" y2="916.489" gradientUnits="userSpaceOnUse">
<stop stop-color="#FFA7E1"/>
<stop offset="1" stop-color="#A7C3FF"/>
</linearGradient>
<linearGradient id="paint39_linear_188_3144" x1="376.186" y1="751.151" x2="376.186" y2="765.933" gradientUnits="userSpaceOnUse">
<stop stop-color="#FFA7E1"/>
<stop offset="1" stop-color="#A7C3FF"/>
</linearGradient>
<linearGradient id="paint40_linear_188_3144" x1="402.901" y1="441.04" x2="402.901" y2="1352.41" gradientUnits="userSpaceOnUse">
<stop stop-color="#FFA7E1"/>
<stop offset="1" stop-color="#A7C3FF"/>
</linearGradient>
<linearGradient id="paint41_linear_188_3144" x1="141.722" y1="680.827" x2="141.722" y2="953.553" gradientUnits="userSpaceOnUse">
<stop stop-color="#FFA7E1"/>
<stop offset="1" stop-color="#A7C3FF"/>
</linearGradient>
<linearGradient id="paint42_linear_188_3144" x1="135.429" y1="764.969" x2="135.429" y2="779.698" gradientUnits="userSpaceOnUse">
<stop stop-color="#FFA7E1"/>
<stop offset="1" stop-color="#A7C3FF"/>
</linearGradient>
<linearGradient id="paint43_linear_188_3144" x1="306.678" y1="441.04" x2="306.678" y2="695.609" gradientUnits="userSpaceOnUse">
<stop stop-color="#FFA7E1"/>
<stop offset="1" stop-color="#A7C3FF"/>
</linearGradient>
<linearGradient id="paint44_linear_188_3144" x1="234.652" y1="601.023" x2="234.652" y2="615.805" gradientUnits="userSpaceOnUse">
<stop stop-color="#FFA7E1"/>
<stop offset="1" stop-color="#A7C3FF"/>
</linearGradient>
<linearGradient id="paint45_linear_188_3144" x1="316.806" y1="523.04" x2="316.806" y2="537.769" gradientUnits="userSpaceOnUse">
<stop stop-color="#FFA7E1"/>
<stop offset="1" stop-color="#A7C3FF"/>
</linearGradient>
<linearGradient id="paint46_linear_188_3144" x1="270.903" y1="441.254" x2="270.903" y2="1298.69" gradientUnits="userSpaceOnUse">
<stop stop-color="#FFA7E1"/>
<stop offset="1" stop-color="#A7C3FF"/>
</linearGradient>
<linearGradient id="paint47_linear_188_3144" x1="463.988" y1="455.769" x2="463.988" y2="753.936" gradientUnits="userSpaceOnUse">
<stop stop-color="#FFA7E1"/>
<stop offset="1" stop-color="#A7C3FF"/>
</linearGradient>
<linearGradient id="paint48_linear_188_3144" x1="474.577" y1="491.333" x2="474.577" y2="724.799" gradientUnits="userSpaceOnUse">
<stop stop-color="#FFA7E1"/>
<stop offset="1" stop-color="#A7C3FF"/>
</linearGradient>
<linearGradient id="paint49_linear_188_3144" x1="504.481" y1="527.968" x2="504.481" y2="746.223" gradientUnits="userSpaceOnUse">
<stop stop-color="#FFA7E1"/>
<stop offset="1" stop-color="#A7C3FF"/>
</linearGradient>
<linearGradient id="paint50_linear_188_3144" x1="468.259" y1="549.82" x2="468.259" y2="619.448" gradientUnits="userSpaceOnUse">
<stop stop-color="#FFA7E1"/>
<stop offset="1" stop-color="#A7C3FF"/>
</linearGradient>
<linearGradient id="paint51_linear_188_3144" x1="453.491" y1="626.41" x2="453.491" y2="685.326" gradientUnits="userSpaceOnUse">
<stop stop-color="#FFA7E1"/>
<stop offset="1" stop-color="#A7C3FF"/>
</linearGradient>
<linearGradient id="paint52_linear_188_3144" x1="435.927" y1="695.02" x2="435.927" y2="978.19" gradientUnits="userSpaceOnUse">
<stop stop-color="#FFA7E1"/>
<stop offset="1" stop-color="#A7C3FF"/>
</linearGradient>
<linearGradient id="paint53_linear_188_3144" x1="442.477" y1="724.799" x2="442.477" y2="946.644" gradientUnits="userSpaceOnUse">
<stop stop-color="#FFA7E1"/>
<stop offset="1" stop-color="#A7C3FF"/>
</linearGradient>
<linearGradient id="paint54_linear_188_3144" x1="474.604" y1="745.955" x2="474.604" y2="968.817" gradientUnits="userSpaceOnUse">
<stop stop-color="#FFA7E1"/>
<stop offset="1" stop-color="#A7C3FF"/>
</linearGradient>
<linearGradient id="paint55_linear_188_3144" x1="435.336" y1="765.933" x2="435.336" y2="825.652" gradientUnits="userSpaceOnUse">
<stop stop-color="#FFA7E1"/>
<stop offset="1" stop-color="#A7C3FF"/>
</linearGradient>
<linearGradient id="paint56_linear_188_3144" x1="457.127" y1="455.769" x2="457.127" y2="1386.8" gradientUnits="userSpaceOnUse">
<stop stop-color="#FFA7E1"/>
<stop offset="1" stop-color="#A7C3FF"/>
</linearGradient>
<linearGradient id="paint57_linear_188_3144" x1="463.987" y1="455.769" x2="463.987" y2="753.936" gradientUnits="userSpaceOnUse">
<stop stop-color="#FFA7E1"/>
<stop offset="1" stop-color="#A7C3FF"/>
</linearGradient>
<linearGradient id="paint58_linear_188_3144" x1="468.258" y1="549.82" x2="468.258" y2="619.448" gradientUnits="userSpaceOnUse">
<stop stop-color="#FFA7E1"/>
<stop offset="1" stop-color="#A7C3FF"/>
</linearGradient>
<linearGradient id="paint59_linear_188_3144" x1="453.49" y1="626.41" x2="453.49" y2="685.326" gradientUnits="userSpaceOnUse">
<stop stop-color="#FFA7E1"/>
<stop offset="1" stop-color="#A7C3FF"/>
</linearGradient>
<linearGradient id="paint60_linear_188_3144" x1="435.926" y1="695.02" x2="435.926" y2="978.19" gradientUnits="userSpaceOnUse">
<stop stop-color="#FFA7E1"/>
<stop offset="1" stop-color="#A7C3FF"/>
</linearGradient>
<linearGradient id="paint61_linear_188_3144" x1="435.335" y1="765.933" x2="435.335" y2="825.652" gradientUnits="userSpaceOnUse">
<stop stop-color="#FFA7E1"/>
<stop offset="1" stop-color="#A7C3FF"/>
</linearGradient>
<linearGradient id="paint62_linear_188_3144" x1="501.329" y1="550.034" x2="501.329" y2="1384.07" gradientUnits="userSpaceOnUse">
<stop stop-color="#FFA7E1"/>
<stop offset="1" stop-color="#A7C3FF"/>
</linearGradient>
<linearGradient id="paint63_linear_188_3144" x1="217.497" y1="695.663" x2="217.497" y2="1010.06" gradientUnits="userSpaceOnUse">
<stop stop-color="#FFA7E1"/>
<stop offset="1" stop-color="#A7C3FF"/>
</linearGradient>
<linearGradient id="paint64_linear_188_3144" x1="212.45" y1="726.888" x2="212.45" y2="983.225" gradientUnits="userSpaceOnUse">
<stop stop-color="#FFA7E1"/>
<stop offset="1" stop-color="#A7C3FF"/>
</linearGradient>
<linearGradient id="paint65_linear_188_3144" x1="257.601" y1="751.472" x2="257.601" y2="1003.2" gradientUnits="userSpaceOnUse">
<stop stop-color="#FFA7E1"/>
<stop offset="1" stop-color="#A7C3FF"/>
</linearGradient>
<linearGradient id="paint66_linear_188_3144" x1="213.293" y1="779.698" x2="213.293" y2="843.648" gradientUnits="userSpaceOnUse">
<stop stop-color="#FFA7E1"/>
<stop offset="1" stop-color="#A7C3FF"/>
</linearGradient>
<linearGradient id="paint67_linear_188_3144" x1="361.064" y1="455.769" x2="361.064" y2="764.005" gradientUnits="userSpaceOnUse">
<stop stop-color="#FFA7E1"/>
<stop offset="1" stop-color="#A7C3FF"/>
</linearGradient>
<linearGradient id="paint68_linear_188_3144" x1="373.958" y1="491.333" x2="373.958" y2="726.674" gradientUnits="userSpaceOnUse">
<stop stop-color="#FFA7E1"/>
<stop offset="1" stop-color="#A7C3FF"/>
</linearGradient>
<linearGradient id="paint69_linear_188_3144" x1="410.132" y1="527.968" x2="410.132" y2="751.204" gradientUnits="userSpaceOnUse">
<stop stop-color="#FFA7E1"/>
<stop offset="1" stop-color="#A7C3FF"/>
</linearGradient>
<linearGradient id="paint70_linear_188_3144" x1="308.98" y1="615.805" x2="308.98" y2="688.54" gradientUnits="userSpaceOnUse">
<stop stop-color="#FFA7E1"/>
<stop offset="1" stop-color="#A7C3FF"/>
</linearGradient>
<linearGradient id="paint71_linear_188_3144" x1="385.319" y1="537.823" x2="385.319" y2="619.555" gradientUnits="userSpaceOnUse">
<stop stop-color="#FFA7E1"/>
<stop offset="1" stop-color="#A7C3FF"/>
</linearGradient>
<linearGradient id="paint72_linear_188_3144" x1="325.213" y1="455.769" x2="325.213" y2="1386.82" gradientUnits="userSpaceOnUse">
<stop stop-color="#FFA7E1"/>
<stop offset="1" stop-color="#A7C3FF"/>
</linearGradient>
<linearGradient id="paint73_linear_188_3144" x1="1060.62" y1="38.1758" x2="1060.62" y2="555.658" gradientUnits="userSpaceOnUse">
<stop stop-color="#FFA7E1"/>
<stop offset="1" stop-color="#A7C3FF"/>
</linearGradient>
<linearGradient id="paint74_linear_188_3144" x1="816.297" y1="-94.6521" x2="816.297" y2="422.884" gradientUnits="userSpaceOnUse">
<stop stop-color="#FFA7E1"/>
<stop offset="1" stop-color="#A7C3FF"/>
</linearGradient>
<linearGradient id="paint75_linear_188_3144" x1="729.187" y1="247.85" x2="729.187" y2="394.015" gradientUnits="userSpaceOnUse">
<stop stop-color="#FFA7E1"/>
<stop offset="1" stop-color="#A7C3FF"/>
</linearGradient>
<linearGradient id="paint76_linear_188_3144" x1="690.548" y1="266.275" x2="690.548" y2="333.225" gradientUnits="userSpaceOnUse">
<stop stop-color="#FFA7E1"/>
<stop offset="1" stop-color="#A7C3FF"/>
</linearGradient>
<linearGradient id="paint77_linear_188_3144" x1="730.098" y1="294.876" x2="730.098" y2="361.504" gradientUnits="userSpaceOnUse">
<stop stop-color="#FFA7E1"/>
<stop offset="1" stop-color="#A7C3FF"/>
</linearGradient>
<linearGradient id="paint78_linear_188_3144" x1="772.462" y1="265.793" x2="772.462" y2="345.65" gradientUnits="userSpaceOnUse">
<stop stop-color="#FFA7E1"/>
<stop offset="1" stop-color="#A7C3FF"/>
</linearGradient>
<linearGradient id="paint79_linear_188_3144" x1="672.568" y1="288.234" x2="672.568" y2="367.61" gradientUnits="userSpaceOnUse">
<stop stop-color="#FFA7E1"/>
<stop offset="1" stop-color="#A7C3FF"/>
</linearGradient>
<linearGradient id="paint80_linear_188_3144" x1="462.031" y1="315.175" x2="462.031" y2="524.915" gradientUnits="userSpaceOnUse">
<stop stop-color="#FFA7E1"/>
<stop offset="1" stop-color="#A7C3FF"/>
</linearGradient>
<linearGradient id="paint81_linear_188_3144" x1="416.083" y1="333.225" x2="416.083" y2="452.609" gradientUnits="userSpaceOnUse">
<stop stop-color="#FFA7E1"/>
<stop offset="1" stop-color="#A7C3FF"/>
</linearGradient>
<linearGradient id="paint82_linear_188_3144" x1="450.005" y1="361.504" x2="450.005" y2="489.244" gradientUnits="userSpaceOnUse">
<stop stop-color="#FFA7E1"/>
<stop offset="1" stop-color="#A7C3FF"/>
</linearGradient>
<linearGradient id="paint83_linear_188_3144" x1="495.611" y1="346.561" x2="495.611" y2="426.204" gradientUnits="userSpaceOnUse">
<stop stop-color="#FFA7E1"/>
<stop offset="1" stop-color="#A7C3FF"/>
</linearGradient>
<linearGradient id="paint84_linear_188_3144" x1="413.83" y1="382.499" x2="413.83" y2="467.713" gradientUnits="userSpaceOnUse">
<stop stop-color="#FFA7E1"/>
<stop offset="1" stop-color="#A7C3FF"/>
</linearGradient>
<linearGradient id="paint85_linear_188_3144" x1="883.924" y1="227.336" x2="883.924" y2="524.968" gradientUnits="userSpaceOnUse">
<stop stop-color="#FFA7E1"/>
<stop offset="1" stop-color="#A7C3FF"/>
</linearGradient>
<linearGradient id="paint86_linear_188_3144" x1="439.093" y1="66.1206" x2="439.093" y2="524.915" gradientUnits="userSpaceOnUse">
<stop stop-color="#FFA7E1"/>
<stop offset="1" stop-color="#A7C3FF"/>
</linearGradient>
<linearGradient id="paint87_linear_188_3144" x1="396.843" y1="68.5326" x2="396.843" y2="452.609" gradientUnits="userSpaceOnUse">
<stop stop-color="#FFA7E1"/>
<stop offset="1" stop-color="#A7C3FF"/>
</linearGradient>
<linearGradient id="paint88_linear_188_3144" x1="428.139" y1="84.3328" x2="428.139" y2="489.244" gradientUnits="userSpaceOnUse">
<stop stop-color="#FFA7E1"/>
<stop offset="1" stop-color="#A7C3FF"/>
</linearGradient>
<linearGradient id="paint89_linear_188_3144" x1="385.762" y1="283.146" x2="385.762" y2="345.865" gradientUnits="userSpaceOnUse">
<stop stop-color="#FFA7E1"/>
<stop offset="1" stop-color="#A7C3FF"/>
</linearGradient>
<linearGradient id="paint90_linear_188_3144" x1="456.118" y1="163.868" x2="456.118" y2="213.09" gradientUnits="userSpaceOnUse">
<stop stop-color="#FFA7E1"/>
<stop offset="1" stop-color="#A7C3FF"/>
</linearGradient>
<linearGradient id="paint91_linear_188_3144" x1="713.667" y1="-92.1911" x2="713.667" y2="112.077" gradientUnits="userSpaceOnUse">
<stop stop-color="#FFA7E1"/>
<stop offset="1" stop-color="#A7C3FF"/>
</linearGradient>
<linearGradient id="paint92_linear_188_3144" x1="671.629" y1="-91.0216" x2="671.629" y2="68.5327" gradientUnits="userSpaceOnUse">
<stop stop-color="#FFA7E1"/>
<stop offset="1" stop-color="#A7C3FF"/>
</linearGradient>
<linearGradient id="paint93_linear_188_3144" x1="708.447" y1="-77.2568" x2="708.447" y2="84.3328" gradientUnits="userSpaceOnUse">
<stop stop-color="#FFA7E1"/>
<stop offset="1" stop-color="#A7C3FF"/>
</linearGradient>
<linearGradient id="paint94_linear_188_3144" x1="641.49" y1="-9.67139" x2="641.49" y2="33.9867" gradientUnits="userSpaceOnUse">
<stop stop-color="#FFA7E1"/>
<stop offset="1" stop-color="#A7C3FF"/>
</linearGradient>
<linearGradient id="paint95_linear_188_3144" x1="884.278" y1="-98.5807" x2="884.278" y2="430.168" gradientUnits="userSpaceOnUse">
<stop stop-color="#FFA7E1"/>
<stop offset="1" stop-color="#A7C3FF"/>
</linearGradient>
<linearGradient id="paint96_linear_188_3144" x1="439.094" y1="66.1206" x2="439.094" y2="524.915" gradientUnits="userSpaceOnUse">
<stop stop-color="#FFA7E1"/>
<stop offset="1" stop-color="#A7C3FF"/>
</linearGradient>
<linearGradient id="paint97_linear_188_3144" x1="396.844" y1="68.5327" x2="396.844" y2="452.609" gradientUnits="userSpaceOnUse">
<stop stop-color="#FFA7E1"/>
<stop offset="1" stop-color="#A7C3FF"/>
</linearGradient>
<linearGradient id="paint98_linear_188_3144" x1="428.14" y1="84.3328" x2="428.14" y2="489.244" gradientUnits="userSpaceOnUse">
<stop stop-color="#FFA7E1"/>
<stop offset="1" stop-color="#A7C3FF"/>
</linearGradient>
<linearGradient id="paint99_linear_188_3144" x1="385.763" y1="283.146" x2="385.763" y2="345.865" gradientUnits="userSpaceOnUse">
<stop stop-color="#FFA7E1"/>
<stop offset="1" stop-color="#A7C3FF"/>
</linearGradient>
<linearGradient id="paint100_linear_188_3144" x1="456.119" y1="163.868" x2="456.119" y2="213.09" gradientUnits="userSpaceOnUse">
<stop stop-color="#FFA7E1"/>
<stop offset="1" stop-color="#A7C3FF"/>
</linearGradient>
<linearGradient id="paint101_linear_188_3144" x1="713.668" y1="-92.1911" x2="713.668" y2="112.077" gradientUnits="userSpaceOnUse">
<stop stop-color="#FFA7E1"/>
<stop offset="1" stop-color="#A7C3FF"/>
</linearGradient>
<linearGradient id="paint102_linear_188_3144" x1="671.63" y1="-91.0216" x2="671.63" y2="68.5327" gradientUnits="userSpaceOnUse">
<stop stop-color="#FFA7E1"/>
<stop offset="1" stop-color="#A7C3FF"/>
</linearGradient>
<linearGradient id="paint103_linear_188_3144" x1="708.448" y1="-77.2567" x2="708.448" y2="84.3328" gradientUnits="userSpaceOnUse">
<stop stop-color="#FFA7E1"/>
<stop offset="1" stop-color="#A7C3FF"/>
</linearGradient>
<linearGradient id="paint104_linear_188_3144" x1="641.491" y1="-9.67133" x2="641.491" y2="33.9867" gradientUnits="userSpaceOnUse">
<stop stop-color="#FFA7E1"/>
<stop offset="1" stop-color="#A7C3FF"/>
</linearGradient>
<linearGradient id="paint105_linear_188_3144" x1="758.177" y1="-98.3057" x2="758.177" y2="524.915" gradientUnits="userSpaceOnUse">
<stop stop-color="#FFA7E1"/>
<stop offset="1" stop-color="#A7C3FF"/>
</linearGradient>
<linearGradient id="paint106_linear_188_3144" x1="798.695" y1="327.44" x2="798.695" y2="408.797" gradientUnits="userSpaceOnUse">
<stop stop-color="#FFA7E1"/>
<stop offset="1" stop-color="#A7C3FF"/>
</linearGradient>
<linearGradient id="paint107_linear_188_3144" x1="741.514" y1="367.61" x2="741.514" y2="382.339" gradientUnits="userSpaceOnUse">
<stop stop-color="#FFA7E1"/>
<stop offset="1" stop-color="#A7C3FF"/>
</linearGradient>
<linearGradient id="paint108_linear_188_3144" x1="516.432" y1="394.068" x2="516.432" y2="539.697" gradientUnits="userSpaceOnUse">
<stop stop-color="#FFA7E1"/>
<stop offset="1" stop-color="#A7C3FF"/>
</linearGradient>
<linearGradient id="paint109_linear_188_3144" x1="565.709" y1="426.151" x2="565.709" y2="440.933" gradientUnits="userSpaceOnUse">
<stop stop-color="#FFA7E1"/>
<stop offset="1" stop-color="#A7C3FF"/>
</linearGradient>
<linearGradient id="paint110_linear_188_3144" x1="479.32" y1="467.713" x2="479.32" y2="482.442" gradientUnits="userSpaceOnUse">
<stop stop-color="#FFA7E1"/>
<stop offset="1" stop-color="#A7C3FF"/>
</linearGradient>
<linearGradient id="paint111_linear_188_3144" x1="938.273" y1="307.186" x2="938.273" y2="539.537" gradientUnits="userSpaceOnUse">
<stop stop-color="#FFA7E1"/>
<stop offset="1" stop-color="#A7C3FF"/>
</linearGradient>
<linearGradient id="paint112_linear_188_3144" x1="493.576" y1="112.076" x2="493.576" y2="539.643" gradientUnits="userSpaceOnUse">
<stop stop-color="#FFA7E1"/>
<stop offset="1" stop-color="#A7C3FF"/>
</linearGradient>
<linearGradient id="paint113_linear_188_3144" x1="444.166" y1="345.811" x2="444.166" y2="360.593" gradientUnits="userSpaceOnUse">
<stop stop-color="#FFA7E1"/>
<stop offset="1" stop-color="#A7C3FF"/>
</linearGradient>
<linearGradient id="paint114_linear_188_3144" x1="516.942" y1="212.929" x2="516.942" y2="227.712" gradientUnits="userSpaceOnUse">
<stop stop-color="#FFA7E1"/>
<stop offset="1" stop-color="#A7C3FF"/>
</linearGradient>
<linearGradient id="paint115_linear_188_3144" x1="776.107" y1="-50.4768" x2="776.107" y2="126.859" gradientUnits="userSpaceOnUse">
<stop stop-color="#FFA7E1"/>
<stop offset="1" stop-color="#A7C3FF"/>
</linearGradient>
<linearGradient id="paint116_linear_188_3144" x1="705.099" y1="33.9325" x2="705.099" y2="48.715" gradientUnits="userSpaceOnUse">
<stop stop-color="#FFA7E1"/>
<stop offset="1" stop-color="#A7C3FF"/>
</linearGradient>
<linearGradient id="paint117_linear_188_3144" x1="812.468" y1="-57.8723" x2="812.468" y2="539.644" gradientUnits="userSpaceOnUse">
<stop stop-color="#FFA7E1"/>
<stop offset="1" stop-color="#A7C3FF"/>
</linearGradient>
<linearGradient id="paint118_linear_188_3144" x1="866.538" y1="342.223" x2="866.538" y2="451.165" gradientUnits="userSpaceOnUse">
<stop stop-color="#FFA7E1"/>
<stop offset="1" stop-color="#A7C3FF"/>
</linearGradient>
<linearGradient id="paint119_linear_188_3144" x1="866.834" y1="369.217" x2="866.834" y2="435.845" gradientUnits="userSpaceOnUse">
<stop stop-color="#FFA7E1"/>
<stop offset="1" stop-color="#A7C3FF"/>
</linearGradient>
<linearGradient id="paint120_linear_188_3144" x1="905.204" y1="382.982" x2="905.204" y2="449.931" gradientUnits="userSpaceOnUse">
<stop stop-color="#FFA7E1"/>
<stop offset="1" stop-color="#A7C3FF"/>
</linearGradient>
<linearGradient id="paint121_linear_188_3144" x1="808.244" y1="382.392" x2="808.244" y2="424.495" gradientUnits="userSpaceOnUse">
<stop stop-color="#FFA7E1"/>
<stop offset="1" stop-color="#A7C3FF"/>
</linearGradient>
<linearGradient id="paint122_linear_188_3144" x1="582.72" y1="408.797" x2="582.72" y2="569.685" gradientUnits="userSpaceOnUse">
<stop stop-color="#FFA7E1"/>
<stop offset="1" stop-color="#A7C3FF"/>
</linearGradient>
<linearGradient id="paint123_linear_188_3144" x1="586.741" y1="435.845" x2="586.741" y2="563.585" gradientUnits="userSpaceOnUse">
<stop stop-color="#FFA7E1"/>
<stop offset="1" stop-color="#A7C3FF"/>
</linearGradient>
<linearGradient id="paint124_linear_188_3144" x1="630.738" y1="449.931" x2="630.738" y2="569.316" gradientUnits="userSpaceOnUse">
<stop stop-color="#FFA7E1"/>
<stop offset="1" stop-color="#A7C3FF"/>
</linearGradient>
<linearGradient id="paint125_linear_188_3144" x1="631.797" y1="440.933" x2="631.797" y2="482.887" gradientUnits="userSpaceOnUse">
<stop stop-color="#FFA7E1"/>
<stop offset="1" stop-color="#A7C3FF"/>
</linearGradient>
<linearGradient id="paint126_linear_188_3144" x1="549.629" y1="482.495" x2="549.629" y2="520.874" gradientUnits="userSpaceOnUse">
<stop stop-color="#FFA7E1"/>
<stop offset="1" stop-color="#A7C3FF"/>
</linearGradient>
<linearGradient id="paint127_linear_188_3144" x1="987.52" y1="322.021" x2="987.52" y2="569.82" gradientUnits="userSpaceOnUse">
<stop stop-color="#FFA7E1"/>
<stop offset="1" stop-color="#A7C3FF"/>
</linearGradient>
<linearGradient id="paint128_linear_188_3144" x1="866.539" y1="342.223" x2="866.539" y2="451.165" gradientUnits="userSpaceOnUse">
<stop stop-color="#FFA7E1"/>
<stop offset="1" stop-color="#A7C3FF"/>
</linearGradient>
<linearGradient id="paint129_linear_188_3144" x1="905.205" y1="382.982" x2="905.205" y2="449.931" gradientUnits="userSpaceOnUse">
<stop stop-color="#FFA7E1"/>
<stop offset="1" stop-color="#A7C3FF"/>
</linearGradient>
<linearGradient id="paint130_linear_188_3144" x1="808.245" y1="382.392" x2="808.245" y2="424.495" gradientUnits="userSpaceOnUse">
<stop stop-color="#FFA7E1"/>
<stop offset="1" stop-color="#A7C3FF"/>
</linearGradient>
<linearGradient id="paint131_linear_188_3144" x1="582.721" y1="408.797" x2="582.721" y2="569.685" gradientUnits="userSpaceOnUse">
<stop stop-color="#FFA7E1"/>
<stop offset="1" stop-color="#A7C3FF"/>
</linearGradient>
<linearGradient id="paint132_linear_188_3144" x1="630.739" y1="449.931" x2="630.739" y2="569.316" gradientUnits="userSpaceOnUse">
<stop stop-color="#FFA7E1"/>
<stop offset="1" stop-color="#A7C3FF"/>
</linearGradient>
<linearGradient id="paint133_linear_188_3144" x1="631.799" y1="440.933" x2="631.799" y2="482.887" gradientUnits="userSpaceOnUse">
<stop stop-color="#FFA7E1"/>
<stop offset="1" stop-color="#A7C3FF"/>
</linearGradient>
<linearGradient id="paint134_linear_188_3144" x1="549.63" y1="482.495" x2="549.63" y2="520.874" gradientUnits="userSpaceOnUse">
<stop stop-color="#FFA7E1"/>
<stop offset="1" stop-color="#A7C3FF"/>
</linearGradient>
<linearGradient id="paint135_linear_188_3144" x1="1059.25" y1="360.164" x2="1059.25" y2="562.299" gradientUnits="userSpaceOnUse">
<stop stop-color="#FFA7E1"/>
<stop offset="1" stop-color="#A7C3FF"/>
</linearGradient>
<linearGradient id="paint136_linear_188_3144" x1="567.1" y1="126.913" x2="567.1" y2="569.7" gradientUnits="userSpaceOnUse">
<stop stop-color="#FFA7E1"/>
<stop offset="1" stop-color="#A7C3FF"/>
</linearGradient>
<linearGradient id="paint137_linear_188_3144" x1="564.849" y1="158.674" x2="564.849" y2="563.585" gradientUnits="userSpaceOnUse">
<stop stop-color="#FFA7E1"/>
<stop offset="1" stop-color="#A7C3FF"/>
</linearGradient>
<linearGradient id="paint138_linear_188_3144" x1="611.473" y1="185.239" x2="611.473" y2="569.316" gradientUnits="userSpaceOnUse">
<stop stop-color="#FFA7E1"/>
<stop offset="1" stop-color="#A7C3FF"/>
</linearGradient>
<linearGradient id="paint139_linear_188_3144" x1="522.512" y1="360.594" x2="522.512" y2="416.091" gradientUnits="userSpaceOnUse">
<stop stop-color="#FFA7E1"/>
<stop offset="1" stop-color="#A7C3FF"/>
</linearGradient>
<linearGradient id="paint140_linear_188_3144" x1="592.341" y1="227.712" x2="592.341" y2="297.661" gradientUnits="userSpaceOnUse">
<stop stop-color="#FFA7E1"/>
<stop offset="1" stop-color="#A7C3FF"/>
</linearGradient>
<linearGradient id="paint141_linear_188_3144" x1="844.003" y1="-35.5338" x2="844.003" y2="200.825" gradientUnits="userSpaceOnUse">
<stop stop-color="#FFA7E1"/>
<stop offset="1" stop-color="#A7C3FF"/>
</linearGradient>
<linearGradient id="paint142_linear_188_3144" x1="845.397" y1="-2.91594" x2="845.397" y2="158.674" gradientUnits="userSpaceOnUse">
<stop stop-color="#FFA7E1"/>
<stop offset="1" stop-color="#A7C3FF"/>
</linearGradient>
<linearGradient id="paint143_linear_188_3144" x1="886.286" y1="25.5778" x2="886.286" y2="185.186" gradientUnits="userSpaceOnUse">
<stop stop-color="#FFA7E1"/>
<stop offset="1" stop-color="#A7C3FF"/>
</linearGradient>
<linearGradient id="paint144_linear_188_3144" x1="777.631" y1="48.7156" x2="777.631" y2="125.895" gradientUnits="userSpaceOnUse">
<stop stop-color="#FFA7E1"/>
<stop offset="1" stop-color="#A7C3FF"/>
</linearGradient>
<linearGradient id="paint145_linear_188_3144" x1="992.799" y1="-42.9207" x2="992.799" y2="569.685" gradientUnits="userSpaceOnUse">
<stop stop-color="#FFA7E1"/>
<stop offset="1" stop-color="#A7C3FF"/>
</linearGradient>
</defs>
</svg>
