<svg width="16" height="16" viewBox="0 0 16 16" fill="none" xmlns="http://www.w3.org/2000/svg">
<path d="M13.1248 4.2354C14.1377 4.6245 14.8678 5.14985 15.3147 5.81129C15.7715 6.47273 16 7.22174 16 8.05832C16 8.87545 15.7715 9.60013 15.3147 10.2325C14.8579 10.8745 14.1278 11.3852 13.1248 11.7646C13.5121 10.6751 13.7057 9.43969 13.7057 8.05832C13.7057 6.59922 13.5121 5.32489 13.1248 4.2354ZM2.75602 4.38131C3.17315 3.09727 3.83368 2.12938 4.73738 1.47763C5.65112 0.825876 6.74854 0.5 8.02975 0.5C9.25135 0.5 10.2992 0.816146 11.1732 1.44845C12.057 2.08074 12.7076 3.00973 13.1248 4.2354C11.8932 3.73929 10.1949 3.49124 8.02975 3.49124C5.81504 3.49124 4.05709 3.78793 2.75602 4.38131ZM2.75602 11.677C4.1167 12.2315 5.87464 12.5087 8.02975 12.5087C10.1651 12.5087 11.8634 12.2607 13.1248 11.7646C12.6878 12.9708 12.0273 13.8949 11.1434 14.5369C10.2694 15.179 9.23148 15.5 8.02975 15.5C6.74854 15.5 5.65112 15.1741 4.73738 14.5223C3.83368 13.8803 3.17315 12.9319 2.75602 11.677ZM0 8.05832C0 7.29958 0.223414 6.59922 0.670351 5.95724C1.12722 5.31516 1.82241 4.78987 2.75602 4.38131C2.40843 5.42219 2.23458 6.64787 2.23458 8.05832C2.23458 9.42996 2.40843 10.6362 2.75602 11.677C1.80265 11.2587 1.10239 10.7335 0.655451 10.1011C0.218448 9.47861 0 8.79761 0 8.05832Z" fill="black" fill-opacity="0.5"/>
</svg>
