<svg width="586" height="553" viewBox="0 0 586 553" fill="none" xmlns="http://www.w3.org/2000/svg">
<path d="M480.695 137.497C517.795 151.819 544.534 171.156 560.903 195.503C577.632 219.85 586 247.421 586 278.215C586 308.292 577.632 334.967 560.903 358.244C544.17 381.874 517.431 400.674 480.695 414.638C494.881 374.536 501.972 329.061 501.972 278.215C501.972 224.507 494.881 177.599 480.695 137.497ZM100.939 142.867C116.217 95.603 140.409 59.976 173.507 35.9856C206.972 11.9952 247.165 0 294.09 0C338.831 0 377.208 11.637 409.219 34.9115C441.589 58.1855 465.417 92.3807 480.695 137.497C435.59 119.235 373.388 110.105 294.09 110.105C212.976 110.105 148.591 121.026 100.939 142.867ZM100.939 411.415C150.774 431.826 215.159 442.029 294.09 442.029C372.296 442.029 434.498 432.9 480.695 414.638C464.689 459.038 440.502 493.055 408.127 516.686C376.117 540.32 338.103 552.136 294.09 552.136C247.165 552.136 206.972 540.141 173.507 516.149C140.409 492.518 116.217 457.605 100.939 411.415ZM0 278.215C0 250.286 8.18255 224.506 24.5516 200.876C41.2845 177.241 66.7457 157.906 100.939 142.867C88.2086 181.181 81.8414 226.297 81.8414 278.215C81.8414 328.703 88.2086 373.103 100.939 411.415C66.0219 396.018 40.375 376.685 24.0059 353.408C8.00066 330.494 0 305.427 0 278.215Z" fill="url(#paint0_linear_17_134)"/>
<defs>
<linearGradient id="paint0_linear_17_134" x1="293" y1="0" x2="293" y2="552.136" gradientUnits="userSpaceOnUse">
<stop stop-color="#FFA7E1"/>
<stop offset="1" stop-color="#FFFCF6"/>
</linearGradient>
</defs>
</svg>
